<mxfile host="Electron" agent="Mozilla/5.0 (Macintosh; Intel Mac OS X 10_15_7) AppleWebKit/537.36 (KHTML, like Gecko) draw.io/24.7.8 Chrome/128.0.6613.36 Electron/32.0.1 Safari/537.36" version="24.7.8">
  <diagram name="Page-1" id="svJpkAXVuNqHe-DoPmCq">
    <mxGraphModel dx="1739" dy="784" grid="1" gridSize="10" guides="1" tooltips="1" connect="1" arrows="1" fold="1" page="1" pageScale="1" pageWidth="6000" pageHeight="5000" math="0" shadow="0">
      <root>
        <mxCell id="0" />
        <mxCell id="1" parent="0" />
        <mxCell id="YE1okfd42vqZ9Zn_DNne-98" value="EmailSender" style="shape=umlLifeline;perimeter=lifelinePerimeter;whiteSpace=wrap;html=1;container=1;dropTarget=0;collapsible=0;recursiveResize=0;outlineConnect=0;portConstraint=eastwest;newEdgeStyle={&quot;curved&quot;:0,&quot;rounded&quot;:0};" vertex="1" parent="1">
          <mxGeometry x="3200" y="1385" width="90" height="700" as="geometry" />
        </mxCell>
        <mxCell id="YE1okfd42vqZ9Zn_DNne-30" value="AccountEntry" style="shape=umlLifeline;perimeter=lifelinePerimeter;whiteSpace=wrap;html=1;container=1;dropTarget=0;collapsible=0;recursiveResize=0;outlineConnect=0;portConstraint=eastwest;newEdgeStyle={&quot;curved&quot;:0,&quot;rounded&quot;:0};" vertex="1" parent="1">
          <mxGeometry x="3015" y="651" width="140" height="620" as="geometry" />
        </mxCell>
        <mxCell id="UyypbC459OmCf84SYycg-1" value="BankApplication" style="shape=umlLifeline;perimeter=lifelinePerimeter;whiteSpace=wrap;html=1;container=1;dropTarget=0;collapsible=0;recursiveResize=0;outlineConnect=0;portConstraint=eastwest;newEdgeStyle={&quot;curved&quot;:0,&quot;rounded&quot;:0};" parent="1" vertex="1">
          <mxGeometry x="120" y="130" width="100" height="430" as="geometry" />
        </mxCell>
        <mxCell id="UyypbC459OmCf84SYycg-12" value="" style="html=1;points=[[0,0,0,0,5],[0,1,0,0,-5],[1,0,0,0,5],[1,1,0,0,-5]];perimeter=orthogonalPerimeter;outlineConnect=0;targetShapes=umlLifeline;portConstraint=eastwest;newEdgeStyle={&quot;curved&quot;:0,&quot;rounded&quot;:0};" parent="UyypbC459OmCf84SYycg-1" vertex="1">
          <mxGeometry x="45" y="90" width="10" height="40" as="geometry" />
        </mxCell>
        <mxCell id="UyypbC459OmCf84SYycg-3" value="AccountRepository" style="shape=umlLifeline;perimeter=lifelinePerimeter;whiteSpace=wrap;html=1;container=1;dropTarget=0;collapsible=0;recursiveResize=0;outlineConnect=0;portConstraint=eastwest;newEdgeStyle={&quot;curved&quot;:0,&quot;rounded&quot;:0};" parent="1" vertex="1">
          <mxGeometry x="1110" y="130" width="140" height="430" as="geometry" />
        </mxCell>
        <mxCell id="BAiD5vXmkqKVS3xAQffU-11" value="" style="html=1;points=[[0,0,0,0,5],[0,1,0,0,-5],[1,0,0,0,5],[1,1,0,0,-5]];perimeter=orthogonalPerimeter;outlineConnect=0;targetShapes=umlLifeline;portConstraint=eastwest;newEdgeStyle={&quot;curved&quot;:0,&quot;rounded&quot;:0};" parent="UyypbC459OmCf84SYycg-3" vertex="1">
          <mxGeometry x="65" y="330" width="10" height="40" as="geometry" />
        </mxCell>
        <mxCell id="UyypbC459OmCf84SYycg-4" value="AccountOperationService" style="shape=umlLifeline;perimeter=lifelinePerimeter;whiteSpace=wrap;html=1;container=1;dropTarget=0;collapsible=0;recursiveResize=0;outlineConnect=0;portConstraint=eastwest;newEdgeStyle={&quot;curved&quot;:0,&quot;rounded&quot;:0};" parent="1" vertex="1">
          <mxGeometry x="880" y="130" width="170" height="430" as="geometry" />
        </mxCell>
        <mxCell id="BAiD5vXmkqKVS3xAQffU-6" value="" style="html=1;points=[[0,0,0,0,5],[0,1,0,0,-5],[1,0,0,0,5],[1,1,0,0,-5]];perimeter=orthogonalPerimeter;outlineConnect=0;targetShapes=umlLifeline;portConstraint=eastwest;newEdgeStyle={&quot;curved&quot;:0,&quot;rounded&quot;:0};" parent="UyypbC459OmCf84SYycg-4" vertex="1">
          <mxGeometry x="80" y="260" width="10" height="40" as="geometry" />
        </mxCell>
        <mxCell id="UyypbC459OmCf84SYycg-5" value="BankService" style="shape=umlLifeline;perimeter=lifelinePerimeter;whiteSpace=wrap;html=1;container=1;dropTarget=0;collapsible=0;recursiveResize=0;outlineConnect=0;portConstraint=eastwest;newEdgeStyle={&quot;curved&quot;:0,&quot;rounded&quot;:0};" parent="1" vertex="1">
          <mxGeometry x="490" y="130" width="100" height="430" as="geometry" />
        </mxCell>
        <mxCell id="BAiD5vXmkqKVS3xAQffU-4" value="" style="html=1;points=[[0,0,0,0,5],[0,1,0,0,-5],[1,0,0,0,5],[1,1,0,0,-5]];perimeter=orthogonalPerimeter;outlineConnect=0;targetShapes=umlLifeline;portConstraint=eastwest;newEdgeStyle={&quot;curved&quot;:0,&quot;rounded&quot;:0};" parent="UyypbC459OmCf84SYycg-5" vertex="1">
          <mxGeometry x="45" y="150" width="10" height="190" as="geometry" />
        </mxCell>
        <mxCell id="UyypbC459OmCf84SYycg-6" value="CreateAccountUseCase" style="shape=umlLifeline;perimeter=lifelinePerimeter;whiteSpace=wrap;html=1;container=1;dropTarget=0;collapsible=0;recursiveResize=0;outlineConnect=0;portConstraint=eastwest;newEdgeStyle={&quot;curved&quot;:0,&quot;rounded&quot;:0};" parent="1" vertex="1">
          <mxGeometry x="280" y="130" width="150" height="430" as="geometry" />
        </mxCell>
        <mxCell id="BAiD5vXmkqKVS3xAQffU-1" value="" style="html=1;points=[[0,0,0,0,5],[0,1,0,0,-5],[1,0,0,0,5],[1,1,0,0,-5]];perimeter=orthogonalPerimeter;outlineConnect=0;targetShapes=umlLifeline;portConstraint=eastwest;newEdgeStyle={&quot;curved&quot;:0,&quot;rounded&quot;:0};" parent="UyypbC459OmCf84SYycg-6" vertex="1">
          <mxGeometry x="70" y="120" width="10" height="40" as="geometry" />
        </mxCell>
        <mxCell id="UyypbC459OmCf84SYycg-7" value="" style="shape=umlLifeline;perimeter=lifelinePerimeter;whiteSpace=wrap;html=1;container=1;dropTarget=0;collapsible=0;recursiveResize=0;outlineConnect=0;portConstraint=eastwest;newEdgeStyle={&quot;curved&quot;:0,&quot;rounded&quot;:0};participant=umlActor;" parent="1" vertex="1">
          <mxGeometry x="50" y="130" width="20" height="430" as="geometry" />
        </mxCell>
        <mxCell id="UyypbC459OmCf84SYycg-8" value="" style="html=1;verticalAlign=bottom;startArrow=oval;startFill=1;endArrow=block;startSize=8;curved=0;rounded=0;entryX=0;entryY=0;entryDx=0;entryDy=5;entryPerimeter=0;" parent="1" source="UyypbC459OmCf84SYycg-7" target="UyypbC459OmCf84SYycg-12" edge="1">
          <mxGeometry width="60" relative="1" as="geometry">
            <mxPoint x="80" y="218" as="sourcePoint" />
            <mxPoint x="170" y="218" as="targetPoint" />
            <mxPoint as="offset" />
          </mxGeometry>
        </mxCell>
        <mxCell id="UyypbC459OmCf84SYycg-10" value="1: addAccount" style="text;html=1;align=center;verticalAlign=middle;resizable=0;points=[];autosize=1;strokeColor=none;fillColor=none;" parent="1" vertex="1">
          <mxGeometry x="60" y="184" width="100" height="30" as="geometry" />
        </mxCell>
        <mxCell id="UyypbC459OmCf84SYycg-13" value="" style="endArrow=block;endFill=1;endSize=6;html=1;rounded=0;exitX=1;exitY=1;exitDx=0;exitDy=-5;exitPerimeter=0;startSize=8;entryX=0;entryY=0;entryDx=0;entryDy=5;entryPerimeter=0;" parent="1" source="UyypbC459OmCf84SYycg-12" target="BAiD5vXmkqKVS3xAQffU-1" edge="1">
          <mxGeometry width="160" relative="1" as="geometry">
            <mxPoint x="190" y="250" as="sourcePoint" />
            <mxPoint x="350" y="255" as="targetPoint" />
          </mxGeometry>
        </mxCell>
        <mxCell id="BAiD5vXmkqKVS3xAQffU-2" value="2: execute" style="text;html=1;align=center;verticalAlign=middle;resizable=0;points=[];autosize=1;strokeColor=none;fillColor=none;" parent="1" vertex="1">
          <mxGeometry x="220" y="220" width="80" height="30" as="geometry" />
        </mxCell>
        <mxCell id="BAiD5vXmkqKVS3xAQffU-3" value="" style="endArrow=block;endFill=1;endSize=6;html=1;rounded=0;exitX=1;exitY=1;exitDx=0;exitDy=-5;exitPerimeter=0;startSize=8;entryX=0;entryY=0;entryDx=0;entryDy=5;entryPerimeter=0;" parent="1" source="BAiD5vXmkqKVS3xAQffU-1" target="BAiD5vXmkqKVS3xAQffU-4" edge="1">
          <mxGeometry width="160" relative="1" as="geometry">
            <mxPoint x="370" y="290" as="sourcePoint" />
            <mxPoint x="540" y="290" as="targetPoint" />
          </mxGeometry>
        </mxCell>
        <mxCell id="BAiD5vXmkqKVS3xAQffU-5" value="3: createAccount" style="text;html=1;align=center;verticalAlign=middle;resizable=0;points=[];autosize=1;strokeColor=none;fillColor=none;" parent="1" vertex="1">
          <mxGeometry x="395" y="250" width="110" height="30" as="geometry" />
        </mxCell>
        <mxCell id="BAiD5vXmkqKVS3xAQffU-7" value="" style="endArrow=block;endFill=1;endSize=6;html=1;rounded=0;startSize=8;entryX=0;entryY=0;entryDx=0;entryDy=5;entryPerimeter=0;" parent="1" source="BAiD5vXmkqKVS3xAQffU-4" target="BAiD5vXmkqKVS3xAQffU-112" edge="1">
          <mxGeometry width="160" relative="1" as="geometry">
            <mxPoint x="570" y="315" as="sourcePoint" />
            <mxPoint x="690" y="315" as="targetPoint" />
          </mxGeometry>
        </mxCell>
        <mxCell id="BAiD5vXmkqKVS3xAQffU-9" value="4: createAccount" style="text;html=1;align=center;verticalAlign=middle;resizable=0;points=[];autosize=1;strokeColor=none;fillColor=none;" parent="1" vertex="1">
          <mxGeometry x="590" y="280" width="110" height="30" as="geometry" />
        </mxCell>
        <mxCell id="BAiD5vXmkqKVS3xAQffU-13" value="BankApplication" style="shape=umlLifeline;perimeter=lifelinePerimeter;whiteSpace=wrap;html=1;container=1;dropTarget=0;collapsible=0;recursiveResize=0;outlineConnect=0;portConstraint=eastwest;newEdgeStyle={&quot;curved&quot;:0,&quot;rounded&quot;:0};" parent="1" vertex="1">
          <mxGeometry x="115" y="630" width="100" height="630" as="geometry" />
        </mxCell>
        <mxCell id="BAiD5vXmkqKVS3xAQffU-14" value="" style="html=1;points=[[0,0,0,0,5],[0,1,0,0,-5],[1,0,0,0,5],[1,1,0,0,-5]];perimeter=orthogonalPerimeter;outlineConnect=0;targetShapes=umlLifeline;portConstraint=eastwest;newEdgeStyle={&quot;curved&quot;:0,&quot;rounded&quot;:0};" parent="BAiD5vXmkqKVS3xAQffU-13" vertex="1">
          <mxGeometry x="45" y="90" width="10" height="40" as="geometry" />
        </mxCell>
        <mxCell id="BAiD5vXmkqKVS3xAQffU-15" value="AccountRepository" style="shape=umlLifeline;perimeter=lifelinePerimeter;whiteSpace=wrap;html=1;container=1;dropTarget=0;collapsible=0;recursiveResize=0;outlineConnect=0;portConstraint=eastwest;newEdgeStyle={&quot;curved&quot;:0,&quot;rounded&quot;:0};" parent="1" vertex="1">
          <mxGeometry x="1420" y="630" width="140" height="630" as="geometry" />
        </mxCell>
        <mxCell id="BAiD5vXmkqKVS3xAQffU-16" value="" style="html=1;points=[[0,0,0,0,5],[0,1,0,0,-5],[1,0,0,0,5],[1,1,0,0,-5]];perimeter=orthogonalPerimeter;outlineConnect=0;targetShapes=umlLifeline;portConstraint=eastwest;newEdgeStyle={&quot;curved&quot;:0,&quot;rounded&quot;:0};" parent="BAiD5vXmkqKVS3xAQffU-15" vertex="1">
          <mxGeometry x="65" y="525" width="10" height="40" as="geometry" />
        </mxCell>
        <mxCell id="YE1okfd42vqZ9Zn_DNne-130" value="" style="html=1;points=[[0,0,0,0,5],[0,1,0,0,-5],[1,0,0,0,5],[1,1,0,0,-5]];perimeter=orthogonalPerimeter;outlineConnect=0;targetShapes=umlLifeline;portConstraint=eastwest;newEdgeStyle={&quot;curved&quot;:0,&quot;rounded&quot;:0};" vertex="1" parent="BAiD5vXmkqKVS3xAQffU-15">
          <mxGeometry x="65" y="211" width="10" height="40" as="geometry" />
        </mxCell>
        <mxCell id="BAiD5vXmkqKVS3xAQffU-17" value="AccountOperationService" style="shape=umlLifeline;perimeter=lifelinePerimeter;whiteSpace=wrap;html=1;container=1;dropTarget=0;collapsible=0;recursiveResize=0;outlineConnect=0;portConstraint=eastwest;newEdgeStyle={&quot;curved&quot;:0,&quot;rounded&quot;:0};" parent="1" vertex="1">
          <mxGeometry x="645" y="630" width="170" height="630" as="geometry" />
        </mxCell>
        <mxCell id="BAiD5vXmkqKVS3xAQffU-18" value="" style="html=1;points=[[0,0,0,0,5],[0,1,0,0,-5],[1,0,0,0,5],[1,1,0,0,-5]];perimeter=orthogonalPerimeter;outlineConnect=0;targetShapes=umlLifeline;portConstraint=eastwest;newEdgeStyle={&quot;curved&quot;:0,&quot;rounded&quot;:0};" parent="BAiD5vXmkqKVS3xAQffU-17" vertex="1">
          <mxGeometry x="80" y="180" width="10" height="360" as="geometry" />
        </mxCell>
        <mxCell id="BAiD5vXmkqKVS3xAQffU-19" value="BankService" style="shape=umlLifeline;perimeter=lifelinePerimeter;whiteSpace=wrap;html=1;container=1;dropTarget=0;collapsible=0;recursiveResize=0;outlineConnect=0;portConstraint=eastwest;newEdgeStyle={&quot;curved&quot;:0,&quot;rounded&quot;:0};" parent="1" vertex="1">
          <mxGeometry x="485" y="630" width="100" height="630" as="geometry" />
        </mxCell>
        <mxCell id="BAiD5vXmkqKVS3xAQffU-20" value="" style="html=1;points=[[0,0,0,0,5],[0,1,0,0,-5],[1,0,0,0,5],[1,1,0,0,-5]];perimeter=orthogonalPerimeter;outlineConnect=0;targetShapes=umlLifeline;portConstraint=eastwest;newEdgeStyle={&quot;curved&quot;:0,&quot;rounded&quot;:0};" parent="BAiD5vXmkqKVS3xAQffU-19" vertex="1">
          <mxGeometry x="45" y="150" width="10" height="40" as="geometry" />
        </mxCell>
        <mxCell id="BAiD5vXmkqKVS3xAQffU-21" value="DepositAccountUsecase" style="shape=umlLifeline;perimeter=lifelinePerimeter;whiteSpace=wrap;html=1;container=1;dropTarget=0;collapsible=0;recursiveResize=0;outlineConnect=0;portConstraint=eastwest;newEdgeStyle={&quot;curved&quot;:0,&quot;rounded&quot;:0};" parent="1" vertex="1">
          <mxGeometry x="275" y="630" width="150" height="630" as="geometry" />
        </mxCell>
        <mxCell id="BAiD5vXmkqKVS3xAQffU-22" value="" style="html=1;points=[[0,0,0,0,5],[0,1,0,0,-5],[1,0,0,0,5],[1,1,0,0,-5]];perimeter=orthogonalPerimeter;outlineConnect=0;targetShapes=umlLifeline;portConstraint=eastwest;newEdgeStyle={&quot;curved&quot;:0,&quot;rounded&quot;:0};" parent="BAiD5vXmkqKVS3xAQffU-21" vertex="1">
          <mxGeometry x="70" y="120" width="10" height="40" as="geometry" />
        </mxCell>
        <mxCell id="BAiD5vXmkqKVS3xAQffU-23" value="" style="shape=umlLifeline;perimeter=lifelinePerimeter;whiteSpace=wrap;html=1;container=1;dropTarget=0;collapsible=0;recursiveResize=0;outlineConnect=0;portConstraint=eastwest;newEdgeStyle={&quot;curved&quot;:0,&quot;rounded&quot;:0};participant=umlActor;" parent="1" vertex="1">
          <mxGeometry x="45" y="630" width="20" height="630" as="geometry" />
        </mxCell>
        <mxCell id="BAiD5vXmkqKVS3xAQffU-24" value="" style="html=1;verticalAlign=bottom;startArrow=oval;startFill=1;endArrow=block;startSize=8;curved=0;rounded=0;entryX=0;entryY=0;entryDx=0;entryDy=5;entryPerimeter=0;" parent="1" source="BAiD5vXmkqKVS3xAQffU-23" target="BAiD5vXmkqKVS3xAQffU-14" edge="1">
          <mxGeometry width="60" relative="1" as="geometry">
            <mxPoint x="75" y="718" as="sourcePoint" />
            <mxPoint x="165" y="718" as="targetPoint" />
            <mxPoint as="offset" />
          </mxGeometry>
        </mxCell>
        <mxCell id="BAiD5vXmkqKVS3xAQffU-25" value="1: deposit" style="text;html=1;align=center;verticalAlign=middle;resizable=0;points=[];autosize=1;strokeColor=none;fillColor=none;" parent="1" vertex="1">
          <mxGeometry x="65" y="684" width="80" height="30" as="geometry" />
        </mxCell>
        <mxCell id="BAiD5vXmkqKVS3xAQffU-26" value="" style="endArrow=block;endFill=1;endSize=6;html=1;rounded=0;exitX=1;exitY=1;exitDx=0;exitDy=-5;exitPerimeter=0;startSize=8;entryX=0;entryY=0;entryDx=0;entryDy=5;entryPerimeter=0;" parent="1" source="BAiD5vXmkqKVS3xAQffU-14" target="BAiD5vXmkqKVS3xAQffU-22" edge="1">
          <mxGeometry width="160" relative="1" as="geometry">
            <mxPoint x="185" y="750" as="sourcePoint" />
            <mxPoint x="345" y="755" as="targetPoint" />
          </mxGeometry>
        </mxCell>
        <mxCell id="BAiD5vXmkqKVS3xAQffU-27" value="2: execute" style="text;html=1;align=center;verticalAlign=middle;resizable=0;points=[];autosize=1;strokeColor=none;fillColor=none;" parent="1" vertex="1">
          <mxGeometry x="215" y="720" width="80" height="30" as="geometry" />
        </mxCell>
        <mxCell id="BAiD5vXmkqKVS3xAQffU-28" value="" style="endArrow=block;endFill=1;endSize=6;html=1;rounded=0;exitX=1;exitY=1;exitDx=0;exitDy=-5;exitPerimeter=0;startSize=8;entryX=0;entryY=0;entryDx=0;entryDy=5;entryPerimeter=0;" parent="1" source="BAiD5vXmkqKVS3xAQffU-22" target="BAiD5vXmkqKVS3xAQffU-20" edge="1">
          <mxGeometry width="160" relative="1" as="geometry">
            <mxPoint x="365" y="790" as="sourcePoint" />
            <mxPoint x="535" y="790" as="targetPoint" />
          </mxGeometry>
        </mxCell>
        <mxCell id="BAiD5vXmkqKVS3xAQffU-29" value="3: deposit" style="text;html=1;align=center;verticalAlign=middle;resizable=0;points=[];autosize=1;strokeColor=none;fillColor=none;" parent="1" vertex="1">
          <mxGeometry x="405" y="750" width="80" height="30" as="geometry" />
        </mxCell>
        <mxCell id="BAiD5vXmkqKVS3xAQffU-30" value="" style="endArrow=block;endFill=1;endSize=6;html=1;rounded=0;exitX=1;exitY=1;exitDx=0;exitDy=-5;exitPerimeter=0;startSize=8;entryX=0;entryY=0;entryDx=0;entryDy=5;entryPerimeter=0;" parent="1" source="BAiD5vXmkqKVS3xAQffU-20" target="BAiD5vXmkqKVS3xAQffU-18" edge="1">
          <mxGeometry width="160" relative="1" as="geometry">
            <mxPoint x="555" y="821" as="sourcePoint" />
            <mxPoint x="735" y="820" as="targetPoint" />
          </mxGeometry>
        </mxCell>
        <mxCell id="BAiD5vXmkqKVS3xAQffU-31" value="4: deposit" style="text;html=1;align=center;verticalAlign=middle;resizable=0;points=[];autosize=1;strokeColor=none;fillColor=none;" parent="1" vertex="1">
          <mxGeometry x="590" y="780" width="80" height="30" as="geometry" />
        </mxCell>
        <mxCell id="BAiD5vXmkqKVS3xAQffU-32" value="" style="endArrow=block;endFill=1;endSize=6;html=1;rounded=0;startSize=8;entryX=0;entryY=0;entryDx=0;entryDy=5;entryPerimeter=0;" parent="1" target="BAiD5vXmkqKVS3xAQffU-140" edge="1">
          <mxGeometry width="160" relative="1" as="geometry">
            <mxPoint x="735" y="890" as="sourcePoint" />
            <mxPoint x="880" y="890" as="targetPoint" />
          </mxGeometry>
        </mxCell>
        <mxCell id="BAiD5vXmkqKVS3xAQffU-33" value="6: deposit" style="text;html=1;align=center;verticalAlign=middle;resizable=0;points=[];autosize=1;strokeColor=none;fillColor=none;" parent="1" vertex="1">
          <mxGeometry x="800" y="855" width="80" height="30" as="geometry" />
        </mxCell>
        <mxCell id="BAiD5vXmkqKVS3xAQffU-76" value="BankApplication" style="shape=umlLifeline;perimeter=lifelinePerimeter;whiteSpace=wrap;html=1;container=1;dropTarget=0;collapsible=0;recursiveResize=0;outlineConnect=0;portConstraint=eastwest;newEdgeStyle={&quot;curved&quot;:0,&quot;rounded&quot;:0};" parent="1" vertex="1">
          <mxGeometry x="120" y="2140" width="100" height="670" as="geometry" />
        </mxCell>
        <mxCell id="BAiD5vXmkqKVS3xAQffU-77" value="" style="html=1;points=[[0,0,0,0,5],[0,1,0,0,-5],[1,0,0,0,5],[1,1,0,0,-5]];perimeter=orthogonalPerimeter;outlineConnect=0;targetShapes=umlLifeline;portConstraint=eastwest;newEdgeStyle={&quot;curved&quot;:0,&quot;rounded&quot;:0};" parent="BAiD5vXmkqKVS3xAQffU-76" vertex="1">
          <mxGeometry x="45" y="90" width="10" height="40" as="geometry" />
        </mxCell>
        <mxCell id="BAiD5vXmkqKVS3xAQffU-78" value="Account" style="shape=umlLifeline;perimeter=lifelinePerimeter;whiteSpace=wrap;html=1;container=1;dropTarget=0;collapsible=0;recursiveResize=0;outlineConnect=0;portConstraint=eastwest;newEdgeStyle={&quot;curved&quot;:0,&quot;rounded&quot;:0};" parent="1" vertex="1">
          <mxGeometry x="880" y="2140" width="140" height="670" as="geometry" />
        </mxCell>
        <mxCell id="BAiD5vXmkqKVS3xAQffU-79" value="" style="html=1;points=[[0,0,0,0,5],[0,1,0,0,-5],[1,0,0,0,5],[1,1,0,0,-5]];perimeter=orthogonalPerimeter;outlineConnect=0;targetShapes=umlLifeline;portConstraint=eastwest;newEdgeStyle={&quot;curved&quot;:0,&quot;rounded&quot;:0};" parent="BAiD5vXmkqKVS3xAQffU-78" vertex="1">
          <mxGeometry x="65" y="257" width="10" height="270" as="geometry" />
        </mxCell>
        <mxCell id="BAiD5vXmkqKVS3xAQffU-109" value="" style="html=1;points=[[0,0,0,0,5],[0,1,0,0,-5],[1,0,0,0,5],[1,1,0,0,-5]];perimeter=orthogonalPerimeter;outlineConnect=0;targetShapes=umlLifeline;portConstraint=eastwest;newEdgeStyle={&quot;curved&quot;:0,&quot;rounded&quot;:0};" parent="BAiD5vXmkqKVS3xAQffU-78" vertex="1">
          <mxGeometry x="70" y="447" width="10" height="40" as="geometry" />
        </mxCell>
        <mxCell id="BAiD5vXmkqKVS3xAQffU-110" value="9: addEntry" style="html=1;align=left;spacingLeft=2;endArrow=block;rounded=0;edgeStyle=orthogonalEdgeStyle;curved=0;rounded=0;" parent="BAiD5vXmkqKVS3xAQffU-78" target="BAiD5vXmkqKVS3xAQffU-109" edge="1">
          <mxGeometry relative="1" as="geometry">
            <mxPoint x="75" y="427" as="sourcePoint" />
            <Array as="points">
              <mxPoint x="105" y="457" />
            </Array>
            <mxPoint as="offset" />
          </mxGeometry>
        </mxCell>
        <mxCell id="BAiD5vXmkqKVS3xAQffU-80" value="AccountOperationService" style="shape=umlLifeline;perimeter=lifelinePerimeter;whiteSpace=wrap;html=1;container=1;dropTarget=0;collapsible=0;recursiveResize=0;outlineConnect=0;portConstraint=eastwest;newEdgeStyle={&quot;curved&quot;:0,&quot;rounded&quot;:0};" parent="1" vertex="1">
          <mxGeometry x="650" y="2140" width="170" height="670" as="geometry" />
        </mxCell>
        <mxCell id="BAiD5vXmkqKVS3xAQffU-81" value="" style="html=1;points=[[0,0,0,0,5],[0,1,0,0,-5],[1,0,0,0,5],[1,1,0,0,-5]];perimeter=orthogonalPerimeter;outlineConnect=0;targetShapes=umlLifeline;portConstraint=eastwest;newEdgeStyle={&quot;curved&quot;:0,&quot;rounded&quot;:0};" parent="BAiD5vXmkqKVS3xAQffU-80" vertex="1">
          <mxGeometry x="80" y="180" width="10" height="410" as="geometry" />
        </mxCell>
        <mxCell id="BAiD5vXmkqKVS3xAQffU-82" value="BankService" style="shape=umlLifeline;perimeter=lifelinePerimeter;whiteSpace=wrap;html=1;container=1;dropTarget=0;collapsible=0;recursiveResize=0;outlineConnect=0;portConstraint=eastwest;newEdgeStyle={&quot;curved&quot;:0,&quot;rounded&quot;:0};" parent="1" vertex="1">
          <mxGeometry x="490" y="2140" width="100" height="670" as="geometry" />
        </mxCell>
        <mxCell id="BAiD5vXmkqKVS3xAQffU-83" value="" style="html=1;points=[[0,0,0,0,5],[0,1,0,0,-5],[1,0,0,0,5],[1,1,0,0,-5]];perimeter=orthogonalPerimeter;outlineConnect=0;targetShapes=umlLifeline;portConstraint=eastwest;newEdgeStyle={&quot;curved&quot;:0,&quot;rounded&quot;:0};" parent="BAiD5vXmkqKVS3xAQffU-82" vertex="1">
          <mxGeometry x="45" y="150" width="10" height="40" as="geometry" />
        </mxCell>
        <mxCell id="BAiD5vXmkqKVS3xAQffU-84" value="AddInterestUsecase" style="shape=umlLifeline;perimeter=lifelinePerimeter;whiteSpace=wrap;html=1;container=1;dropTarget=0;collapsible=0;recursiveResize=0;outlineConnect=0;portConstraint=eastwest;newEdgeStyle={&quot;curved&quot;:0,&quot;rounded&quot;:0};" parent="1" vertex="1">
          <mxGeometry x="280" y="2140" width="150" height="670" as="geometry" />
        </mxCell>
        <mxCell id="BAiD5vXmkqKVS3xAQffU-85" value="" style="html=1;points=[[0,0,0,0,5],[0,1,0,0,-5],[1,0,0,0,5],[1,1,0,0,-5]];perimeter=orthogonalPerimeter;outlineConnect=0;targetShapes=umlLifeline;portConstraint=eastwest;newEdgeStyle={&quot;curved&quot;:0,&quot;rounded&quot;:0};" parent="BAiD5vXmkqKVS3xAQffU-84" vertex="1">
          <mxGeometry x="70" y="120" width="10" height="40" as="geometry" />
        </mxCell>
        <mxCell id="BAiD5vXmkqKVS3xAQffU-86" value="" style="shape=umlLifeline;perimeter=lifelinePerimeter;whiteSpace=wrap;html=1;container=1;dropTarget=0;collapsible=0;recursiveResize=0;outlineConnect=0;portConstraint=eastwest;newEdgeStyle={&quot;curved&quot;:0,&quot;rounded&quot;:0};participant=umlActor;" parent="1" vertex="1">
          <mxGeometry x="50" y="2140" width="20" height="670" as="geometry" />
        </mxCell>
        <mxCell id="BAiD5vXmkqKVS3xAQffU-87" value="" style="html=1;verticalAlign=bottom;startArrow=oval;startFill=1;endArrow=block;startSize=8;curved=0;rounded=0;entryX=0;entryY=0;entryDx=0;entryDy=5;entryPerimeter=0;" parent="1" source="BAiD5vXmkqKVS3xAQffU-86" target="BAiD5vXmkqKVS3xAQffU-77" edge="1">
          <mxGeometry width="60" relative="1" as="geometry">
            <mxPoint x="80" y="2228" as="sourcePoint" />
            <mxPoint x="170" y="2228" as="targetPoint" />
            <mxPoint as="offset" />
          </mxGeometry>
        </mxCell>
        <mxCell id="BAiD5vXmkqKVS3xAQffU-88" value="1: addInterest" style="text;html=1;align=center;verticalAlign=middle;resizable=0;points=[];autosize=1;strokeColor=none;fillColor=none;" parent="1" vertex="1">
          <mxGeometry x="60" y="2194" width="100" height="30" as="geometry" />
        </mxCell>
        <mxCell id="BAiD5vXmkqKVS3xAQffU-89" value="" style="endArrow=block;endFill=1;endSize=6;html=1;rounded=0;exitX=1;exitY=1;exitDx=0;exitDy=-5;exitPerimeter=0;startSize=8;entryX=0;entryY=0;entryDx=0;entryDy=5;entryPerimeter=0;" parent="1" source="BAiD5vXmkqKVS3xAQffU-77" target="BAiD5vXmkqKVS3xAQffU-85" edge="1">
          <mxGeometry width="160" relative="1" as="geometry">
            <mxPoint x="190" y="2260" as="sourcePoint" />
            <mxPoint x="350" y="2265" as="targetPoint" />
          </mxGeometry>
        </mxCell>
        <mxCell id="BAiD5vXmkqKVS3xAQffU-90" value="2: execute" style="text;html=1;align=center;verticalAlign=middle;resizable=0;points=[];autosize=1;strokeColor=none;fillColor=none;" parent="1" vertex="1">
          <mxGeometry x="220" y="2230" width="80" height="30" as="geometry" />
        </mxCell>
        <mxCell id="BAiD5vXmkqKVS3xAQffU-91" value="" style="endArrow=block;endFill=1;endSize=6;html=1;rounded=0;exitX=1;exitY=1;exitDx=0;exitDy=-5;exitPerimeter=0;startSize=8;entryX=0;entryY=0;entryDx=0;entryDy=5;entryPerimeter=0;" parent="1" source="BAiD5vXmkqKVS3xAQffU-85" target="BAiD5vXmkqKVS3xAQffU-83" edge="1">
          <mxGeometry width="160" relative="1" as="geometry">
            <mxPoint x="370" y="2300" as="sourcePoint" />
            <mxPoint x="540" y="2300" as="targetPoint" />
          </mxGeometry>
        </mxCell>
        <mxCell id="BAiD5vXmkqKVS3xAQffU-92" value="3: addInterest" style="text;html=1;align=center;verticalAlign=middle;resizable=0;points=[];autosize=1;strokeColor=none;fillColor=none;" parent="1" vertex="1">
          <mxGeometry x="400" y="2260" width="100" height="30" as="geometry" />
        </mxCell>
        <mxCell id="BAiD5vXmkqKVS3xAQffU-93" value="" style="endArrow=block;endFill=1;endSize=6;html=1;rounded=0;startSize=8;entryX=0;entryY=0;entryDx=0;entryDy=5;entryPerimeter=0;exitX=1;exitY=1;exitDx=0;exitDy=-5;exitPerimeter=0;" parent="1" source="BAiD5vXmkqKVS3xAQffU-83" target="BAiD5vXmkqKVS3xAQffU-81" edge="1">
          <mxGeometry width="160" relative="1" as="geometry">
            <mxPoint x="570" y="2325" as="sourcePoint" />
            <mxPoint x="740" y="2330" as="targetPoint" />
          </mxGeometry>
        </mxCell>
        <mxCell id="BAiD5vXmkqKVS3xAQffU-94" value="4: addInterest" style="text;html=1;align=center;verticalAlign=middle;resizable=0;points=[];autosize=1;strokeColor=none;fillColor=none;" parent="1" vertex="1">
          <mxGeometry x="585" y="2290" width="100" height="30" as="geometry" />
        </mxCell>
        <mxCell id="BAiD5vXmkqKVS3xAQffU-95" value="" style="endArrow=block;endFill=1;endSize=6;html=1;rounded=0;startSize=8;entryX=0;entryY=0;entryDx=0;entryDy=5;entryPerimeter=0;" parent="1" target="BAiD5vXmkqKVS3xAQffU-79" edge="1">
          <mxGeometry width="160" relative="1" as="geometry">
            <mxPoint x="740" y="2402" as="sourcePoint" />
            <mxPoint x="935" y="2397" as="targetPoint" />
          </mxGeometry>
        </mxCell>
        <mxCell id="BAiD5vXmkqKVS3xAQffU-96" value="6: addInterest" style="text;html=1;align=center;verticalAlign=middle;resizable=0;points=[];autosize=1;strokeColor=none;fillColor=none;" parent="1" vertex="1">
          <mxGeometry x="795" y="2367" width="100" height="30" as="geometry" />
        </mxCell>
        <mxCell id="BAiD5vXmkqKVS3xAQffU-97" value="InterestCalculatorStrategy" style="shape=umlLifeline;perimeter=lifelinePerimeter;whiteSpace=wrap;html=1;container=1;dropTarget=0;collapsible=0;recursiveResize=0;outlineConnect=0;portConstraint=eastwest;newEdgeStyle={&quot;curved&quot;:0,&quot;rounded&quot;:0};" parent="1" vertex="1">
          <mxGeometry x="1080" y="2140" width="150" height="670" as="geometry" />
        </mxCell>
        <mxCell id="BAiD5vXmkqKVS3xAQffU-98" value="" style="html=1;points=[[0,0,0,0,5],[0,1,0,0,-5],[1,0,0,0,5],[1,1,0,0,-5]];perimeter=orthogonalPerimeter;outlineConnect=0;targetShapes=umlLifeline;portConstraint=eastwest;newEdgeStyle={&quot;curved&quot;:0,&quot;rounded&quot;:0};" parent="BAiD5vXmkqKVS3xAQffU-97" vertex="1">
          <mxGeometry x="70" y="287" width="10" height="40" as="geometry" />
        </mxCell>
        <mxCell id="BAiD5vXmkqKVS3xAQffU-101" value="" style="endArrow=block;endFill=1;endSize=6;html=1;rounded=0;startSize=8;entryX=0;entryY=0;entryDx=0;entryDy=5;entryPerimeter=0;" parent="1" source="BAiD5vXmkqKVS3xAQffU-79" target="BAiD5vXmkqKVS3xAQffU-98" edge="1">
          <mxGeometry width="160" relative="1" as="geometry">
            <mxPoint x="960" y="2432" as="sourcePoint" />
            <mxPoint x="1120" y="2432" as="targetPoint" />
          </mxGeometry>
        </mxCell>
        <mxCell id="BAiD5vXmkqKVS3xAQffU-102" value="7: calculateInterest" style="text;html=1;align=center;verticalAlign=middle;resizable=0;points=[];autosize=1;strokeColor=none;fillColor=none;" parent="1" vertex="1">
          <mxGeometry x="990" y="2397" width="120" height="30" as="geometry" />
        </mxCell>
        <mxCell id="BAiD5vXmkqKVS3xAQffU-103" value="AccountEntry" style="shape=umlLifeline;perimeter=lifelinePerimeter;whiteSpace=wrap;html=1;container=1;dropTarget=0;collapsible=0;recursiveResize=0;outlineConnect=0;portConstraint=eastwest;newEdgeStyle={&quot;curved&quot;:0,&quot;rounded&quot;:0};" parent="1" vertex="1">
          <mxGeometry x="1300" y="2140" width="150" height="670" as="geometry" />
        </mxCell>
        <mxCell id="BAiD5vXmkqKVS3xAQffU-104" value="" style="html=1;points=[[0,0,0,0,5],[0,1,0,0,-5],[1,0,0,0,5],[1,1,0,0,-5]];perimeter=orthogonalPerimeter;outlineConnect=0;targetShapes=umlLifeline;portConstraint=eastwest;newEdgeStyle={&quot;curved&quot;:0,&quot;rounded&quot;:0};" parent="BAiD5vXmkqKVS3xAQffU-103" vertex="1">
          <mxGeometry x="70" y="357" width="10" height="40" as="geometry" />
        </mxCell>
        <mxCell id="BAiD5vXmkqKVS3xAQffU-105" value="" style="endArrow=block;endFill=1;endSize=6;html=1;rounded=0;startSize=8;entryX=0;entryY=0;entryDx=0;entryDy=5;entryPerimeter=0;" parent="1" source="BAiD5vXmkqKVS3xAQffU-79" target="BAiD5vXmkqKVS3xAQffU-104" edge="1">
          <mxGeometry width="160" relative="1" as="geometry">
            <mxPoint x="1160" y="2507" as="sourcePoint" />
            <mxPoint x="1355" y="2507" as="targetPoint" />
          </mxGeometry>
        </mxCell>
        <mxCell id="BAiD5vXmkqKVS3xAQffU-106" value="8: createEntry" style="text;html=1;align=center;verticalAlign=middle;resizable=0;points=[];autosize=1;strokeColor=none;fillColor=none;" parent="1" vertex="1">
          <mxGeometry x="1200" y="2467" width="100" height="30" as="geometry" />
        </mxCell>
        <mxCell id="BAiD5vXmkqKVS3xAQffU-111" value="AccountFactory" style="shape=umlLifeline;perimeter=lifelinePerimeter;whiteSpace=wrap;html=1;container=1;dropTarget=0;collapsible=0;recursiveResize=0;outlineConnect=0;portConstraint=eastwest;newEdgeStyle={&quot;curved&quot;:0,&quot;rounded&quot;:0};" parent="1" vertex="1">
          <mxGeometry x="660" y="130" width="170" height="430" as="geometry" />
        </mxCell>
        <mxCell id="BAiD5vXmkqKVS3xAQffU-112" value="" style="html=1;points=[[0,0,0,0,5],[0,1,0,0,-5],[1,0,0,0,5],[1,1,0,0,-5]];perimeter=orthogonalPerimeter;outlineConnect=0;targetShapes=umlLifeline;portConstraint=eastwest;newEdgeStyle={&quot;curved&quot;:0,&quot;rounded&quot;:0};" parent="BAiD5vXmkqKVS3xAQffU-111" vertex="1">
          <mxGeometry x="80" y="180" width="10" height="40" as="geometry" />
        </mxCell>
        <mxCell id="BAiD5vXmkqKVS3xAQffU-114" value="" style="endArrow=block;endFill=1;endSize=6;html=1;rounded=0;startSize=8;entryX=0;entryY=0;entryDx=0;entryDy=5;entryPerimeter=0;" parent="1" source="BAiD5vXmkqKVS3xAQffU-4" target="BAiD5vXmkqKVS3xAQffU-6" edge="1">
          <mxGeometry width="160" relative="1" as="geometry">
            <mxPoint x="560" y="380" as="sourcePoint" />
            <mxPoint x="755" y="380" as="targetPoint" />
          </mxGeometry>
        </mxCell>
        <mxCell id="BAiD5vXmkqKVS3xAQffU-115" value="5: getRepository" style="text;html=1;align=center;verticalAlign=middle;resizable=0;points=[];autosize=1;strokeColor=none;fillColor=none;" parent="1" vertex="1">
          <mxGeometry x="760" y="360" width="110" height="30" as="geometry" />
        </mxCell>
        <mxCell id="BAiD5vXmkqKVS3xAQffU-121" value="DB" style="shape=umlLifeline;perimeter=lifelinePerimeter;whiteSpace=wrap;html=1;container=1;dropTarget=0;collapsible=0;recursiveResize=0;outlineConnect=0;portConstraint=eastwest;newEdgeStyle={&quot;curved&quot;:0,&quot;rounded&quot;:0};" parent="1" vertex="1">
          <mxGeometry x="1645" y="630" width="140" height="630" as="geometry" />
        </mxCell>
        <mxCell id="BAiD5vXmkqKVS3xAQffU-119" value="" style="html=1;points=[[0,0,0,0,5],[0,1,0,0,-5],[1,0,0,0,5],[1,1,0,0,-5]];perimeter=orthogonalPerimeter;outlineConnect=0;targetShapes=umlLifeline;portConstraint=eastwest;newEdgeStyle={&quot;curved&quot;:0,&quot;rounded&quot;:0};" parent="BAiD5vXmkqKVS3xAQffU-121" vertex="1">
          <mxGeometry x="65" y="556" width="10" height="39" as="geometry" />
        </mxCell>
        <mxCell id="BAiD5vXmkqKVS3xAQffU-125" value="" style="endArrow=block;endFill=1;endSize=6;html=1;rounded=0;startSize=8;entryX=0;entryY=0;entryDx=0;entryDy=5;entryPerimeter=0;exitX=1;exitY=1;exitDx=0;exitDy=-5;exitPerimeter=0;" parent="1" source="BAiD5vXmkqKVS3xAQffU-16" target="BAiD5vXmkqKVS3xAQffU-119" edge="1">
          <mxGeometry width="160" relative="1" as="geometry">
            <mxPoint x="1505" y="1205" as="sourcePoint" />
            <mxPoint x="1710" y="1205" as="targetPoint" />
          </mxGeometry>
        </mxCell>
        <mxCell id="BAiD5vXmkqKVS3xAQffU-126" value="11: saveToDB" style="text;html=1;align=center;verticalAlign=middle;resizable=0;points=[];autosize=1;strokeColor=none;fillColor=none;" parent="1" vertex="1">
          <mxGeometry x="1550" y="1155" width="100" height="30" as="geometry" />
        </mxCell>
        <mxCell id="BAiD5vXmkqKVS3xAQffU-127" value="" style="endArrow=block;endFill=1;endSize=6;html=1;rounded=0;startSize=8;entryX=0;entryY=0;entryDx=0;entryDy=5;entryPerimeter=0;" parent="1" source="BAiD5vXmkqKVS3xAQffU-4" target="BAiD5vXmkqKVS3xAQffU-11" edge="1">
          <mxGeometry width="160" relative="1" as="geometry">
            <mxPoint x="550" y="470" as="sourcePoint" />
            <mxPoint x="965" y="470" as="targetPoint" />
          </mxGeometry>
        </mxCell>
        <mxCell id="BAiD5vXmkqKVS3xAQffU-128" value="6: save" style="text;html=1;align=center;verticalAlign=middle;resizable=0;points=[];autosize=1;strokeColor=none;fillColor=none;" parent="1" vertex="1">
          <mxGeometry x="845" y="430" width="60" height="30" as="geometry" />
        </mxCell>
        <mxCell id="BAiD5vXmkqKVS3xAQffU-131" value="DB" style="shape=umlLifeline;perimeter=lifelinePerimeter;whiteSpace=wrap;html=1;container=1;dropTarget=0;collapsible=0;recursiveResize=0;outlineConnect=0;portConstraint=eastwest;newEdgeStyle={&quot;curved&quot;:0,&quot;rounded&quot;:0};" parent="1" vertex="1">
          <mxGeometry x="1305" y="130" width="140" height="430" as="geometry" />
        </mxCell>
        <mxCell id="BAiD5vXmkqKVS3xAQffU-132" value="" style="html=1;points=[[0,0,0,0,5],[0,1,0,0,-5],[1,0,0,0,5],[1,1,0,0,-5]];perimeter=orthogonalPerimeter;outlineConnect=0;targetShapes=umlLifeline;portConstraint=eastwest;newEdgeStyle={&quot;curved&quot;:0,&quot;rounded&quot;:0};" parent="BAiD5vXmkqKVS3xAQffU-131" vertex="1">
          <mxGeometry x="65" y="360" width="10" height="40" as="geometry" />
        </mxCell>
        <mxCell id="BAiD5vXmkqKVS3xAQffU-133" value="" style="endArrow=block;endFill=1;endSize=6;html=1;rounded=0;exitX=1;exitY=1;exitDx=0;exitDy=-5;exitPerimeter=0;startSize=8;entryX=0;entryY=0;entryDx=0;entryDy=5;entryPerimeter=0;" parent="1" source="BAiD5vXmkqKVS3xAQffU-11" target="BAiD5vXmkqKVS3xAQffU-132" edge="1">
          <mxGeometry width="160" relative="1" as="geometry">
            <mxPoint x="1190" y="490" as="sourcePoint" />
            <mxPoint x="1370" y="495" as="targetPoint" />
          </mxGeometry>
        </mxCell>
        <mxCell id="BAiD5vXmkqKVS3xAQffU-134" value="7: saveToDB" style="text;html=1;align=center;verticalAlign=middle;resizable=0;points=[];autosize=1;strokeColor=none;fillColor=none;" parent="1" vertex="1">
          <mxGeometry x="1225" y="460" width="90" height="30" as="geometry" />
        </mxCell>
        <mxCell id="BAiD5vXmkqKVS3xAQffU-139" value="Account" style="shape=umlLifeline;perimeter=lifelinePerimeter;whiteSpace=wrap;html=1;container=1;dropTarget=0;collapsible=0;recursiveResize=0;outlineConnect=0;portConstraint=eastwest;newEdgeStyle={&quot;curved&quot;:0,&quot;rounded&quot;:0};" parent="1" vertex="1">
          <mxGeometry x="890" y="630" width="100" height="630" as="geometry" />
        </mxCell>
        <mxCell id="BAiD5vXmkqKVS3xAQffU-140" value="" style="html=1;points=[[0,0,0,0,5],[0,1,0,0,-5],[1,0,0,0,5],[1,1,0,0,-5]];perimeter=orthogonalPerimeter;outlineConnect=0;targetShapes=umlLifeline;portConstraint=eastwest;newEdgeStyle={&quot;curved&quot;:0,&quot;rounded&quot;:0};" parent="BAiD5vXmkqKVS3xAQffU-139" vertex="1">
          <mxGeometry x="45" y="255" width="10" height="170" as="geometry" />
        </mxCell>
        <mxCell id="BAiD5vXmkqKVS3xAQffU-145" value="" style="html=1;points=[[0,0,0,0,5],[0,1,0,0,-5],[1,0,0,0,5],[1,1,0,0,-5]];perimeter=orthogonalPerimeter;outlineConnect=0;targetShapes=umlLifeline;portConstraint=eastwest;newEdgeStyle={&quot;curved&quot;:0,&quot;rounded&quot;:0};" parent="BAiD5vXmkqKVS3xAQffU-139" vertex="1">
          <mxGeometry x="50" y="365" width="10" height="40" as="geometry" />
        </mxCell>
        <mxCell id="BAiD5vXmkqKVS3xAQffU-146" value="8: addEntry" style="html=1;align=left;spacingLeft=2;endArrow=block;rounded=0;edgeStyle=orthogonalEdgeStyle;curved=0;rounded=0;" parent="BAiD5vXmkqKVS3xAQffU-139" target="BAiD5vXmkqKVS3xAQffU-145" edge="1">
          <mxGeometry relative="1" as="geometry">
            <mxPoint x="55" y="345" as="sourcePoint" />
            <Array as="points">
              <mxPoint x="85" y="375" />
            </Array>
          </mxGeometry>
        </mxCell>
        <mxCell id="BAiD5vXmkqKVS3xAQffU-141" value="AccountEntry" style="shape=umlLifeline;perimeter=lifelinePerimeter;whiteSpace=wrap;html=1;container=1;dropTarget=0;collapsible=0;recursiveResize=0;outlineConnect=0;portConstraint=eastwest;newEdgeStyle={&quot;curved&quot;:0,&quot;rounded&quot;:0};" parent="1" vertex="1">
          <mxGeometry x="1050" y="630" width="140" height="630" as="geometry" />
        </mxCell>
        <mxCell id="BAiD5vXmkqKVS3xAQffU-142" value="" style="html=1;points=[[0,0,0,0,5],[0,1,0,0,-5],[1,0,0,0,5],[1,1,0,0,-5]];perimeter=orthogonalPerimeter;outlineConnect=0;targetShapes=umlLifeline;portConstraint=eastwest;newEdgeStyle={&quot;curved&quot;:0,&quot;rounded&quot;:0};" parent="BAiD5vXmkqKVS3xAQffU-141" vertex="1">
          <mxGeometry x="65" y="285" width="10" height="40" as="geometry" />
        </mxCell>
        <mxCell id="BAiD5vXmkqKVS3xAQffU-143" value="" style="endArrow=block;endFill=1;endSize=6;html=1;rounded=0;startSize=8;entryX=0;entryY=0;entryDx=0;entryDy=5;entryPerimeter=0;" parent="1" source="BAiD5vXmkqKVS3xAQffU-140" target="BAiD5vXmkqKVS3xAQffU-142" edge="1">
          <mxGeometry width="160" relative="1" as="geometry">
            <mxPoint x="1010" y="875" as="sourcePoint" />
            <mxPoint x="1215" y="875" as="targetPoint" />
          </mxGeometry>
        </mxCell>
        <mxCell id="BAiD5vXmkqKVS3xAQffU-144" value="7: new" style="text;html=1;align=center;verticalAlign=middle;resizable=0;points=[];autosize=1;strokeColor=none;fillColor=none;" parent="1" vertex="1">
          <mxGeometry x="1000" y="885" width="60" height="30" as="geometry" />
        </mxCell>
        <mxCell id="BAiD5vXmkqKVS3xAQffU-147" value="EmailSender" style="shape=umlLifeline;perimeter=lifelinePerimeter;whiteSpace=wrap;html=1;container=1;dropTarget=0;collapsible=0;recursiveResize=0;outlineConnect=0;portConstraint=eastwest;newEdgeStyle={&quot;curved&quot;:0,&quot;rounded&quot;:0};" parent="1" vertex="1">
          <mxGeometry x="1240" y="630" width="140" height="630" as="geometry" />
        </mxCell>
        <mxCell id="BAiD5vXmkqKVS3xAQffU-148" value="" style="html=1;points=[[0,0,0,0,5],[0,1,0,0,-5],[1,0,0,0,5],[1,1,0,0,-5]];perimeter=orthogonalPerimeter;outlineConnect=0;targetShapes=umlLifeline;portConstraint=eastwest;newEdgeStyle={&quot;curved&quot;:0,&quot;rounded&quot;:0};" parent="BAiD5vXmkqKVS3xAQffU-147" vertex="1">
          <mxGeometry x="65" y="455" width="10" height="40" as="geometry" />
        </mxCell>
        <mxCell id="BAiD5vXmkqKVS3xAQffU-149" value="" style="endArrow=block;endFill=1;endSize=6;html=1;rounded=0;startSize=8;entryX=0;entryY=0;entryDx=0;entryDy=5;entryPerimeter=0;" parent="1" target="BAiD5vXmkqKVS3xAQffU-148" edge="1">
          <mxGeometry width="160" relative="1" as="geometry">
            <mxPoint x="735" y="1090" as="sourcePoint" />
            <mxPoint x="925" y="1095" as="targetPoint" />
          </mxGeometry>
        </mxCell>
        <mxCell id="BAiD5vXmkqKVS3xAQffU-150" value="9: onUpdate" style="text;html=1;align=center;verticalAlign=middle;resizable=0;points=[];autosize=1;strokeColor=none;fillColor=none;" parent="1" vertex="1">
          <mxGeometry x="995" y="1055" width="90" height="30" as="geometry" />
        </mxCell>
        <mxCell id="BAiD5vXmkqKVS3xAQffU-151" value="" style="endArrow=block;endFill=1;endSize=6;html=1;rounded=0;startSize=8;entryX=0;entryY=0;entryDx=0;entryDy=5;entryPerimeter=0;" parent="1" target="BAiD5vXmkqKVS3xAQffU-16" edge="1">
          <mxGeometry width="160" relative="1" as="geometry">
            <mxPoint x="735" y="1160" as="sourcePoint" />
            <mxPoint x="1474.5" y="1169.2899999999997" as="targetPoint" />
          </mxGeometry>
        </mxCell>
        <mxCell id="BAiD5vXmkqKVS3xAQffU-152" value="10: update" style="text;html=1;align=center;verticalAlign=middle;resizable=0;points=[];autosize=1;strokeColor=none;fillColor=none;" parent="1" vertex="1">
          <mxGeometry x="1005" y="1125" width="80" height="30" as="geometry" />
        </mxCell>
        <mxCell id="BAiD5vXmkqKVS3xAQffU-153" value="BankApplication" style="shape=umlLifeline;perimeter=lifelinePerimeter;whiteSpace=wrap;html=1;container=1;dropTarget=0;collapsible=0;recursiveResize=0;outlineConnect=0;portConstraint=eastwest;newEdgeStyle={&quot;curved&quot;:0,&quot;rounded&quot;:0};" parent="1" vertex="1">
          <mxGeometry x="120" y="1400" width="100" height="630" as="geometry" />
        </mxCell>
        <mxCell id="BAiD5vXmkqKVS3xAQffU-154" value="" style="html=1;points=[[0,0,0,0,5],[0,1,0,0,-5],[1,0,0,0,5],[1,1,0,0,-5]];perimeter=orthogonalPerimeter;outlineConnect=0;targetShapes=umlLifeline;portConstraint=eastwest;newEdgeStyle={&quot;curved&quot;:0,&quot;rounded&quot;:0};" parent="BAiD5vXmkqKVS3xAQffU-153" vertex="1">
          <mxGeometry x="45" y="90" width="10" height="40" as="geometry" />
        </mxCell>
        <mxCell id="BAiD5vXmkqKVS3xAQffU-155" value="AccountRepository" style="shape=umlLifeline;perimeter=lifelinePerimeter;whiteSpace=wrap;html=1;container=1;dropTarget=0;collapsible=0;recursiveResize=0;outlineConnect=0;portConstraint=eastwest;newEdgeStyle={&quot;curved&quot;:0,&quot;rounded&quot;:0};" parent="1" vertex="1">
          <mxGeometry x="1425" y="1400" width="140" height="630" as="geometry" />
        </mxCell>
        <mxCell id="BAiD5vXmkqKVS3xAQffU-156" value="" style="html=1;points=[[0,0,0,0,5],[0,1,0,0,-5],[1,0,0,0,5],[1,1,0,0,-5]];perimeter=orthogonalPerimeter;outlineConnect=0;targetShapes=umlLifeline;portConstraint=eastwest;newEdgeStyle={&quot;curved&quot;:0,&quot;rounded&quot;:0};" parent="BAiD5vXmkqKVS3xAQffU-155" vertex="1">
          <mxGeometry x="65" y="530" width="10" height="40" as="geometry" />
        </mxCell>
        <mxCell id="YE1okfd42vqZ9Zn_DNne-126" value="" style="html=1;points=[[0,0,0,0,5],[0,1,0,0,-5],[1,0,0,0,5],[1,1,0,0,-5]];perimeter=orthogonalPerimeter;outlineConnect=0;targetShapes=umlLifeline;portConstraint=eastwest;newEdgeStyle={&quot;curved&quot;:0,&quot;rounded&quot;:0};" vertex="1" parent="BAiD5vXmkqKVS3xAQffU-155">
          <mxGeometry x="65" y="208" width="10" height="40" as="geometry" />
        </mxCell>
        <mxCell id="BAiD5vXmkqKVS3xAQffU-157" value="AccountOperationService" style="shape=umlLifeline;perimeter=lifelinePerimeter;whiteSpace=wrap;html=1;container=1;dropTarget=0;collapsible=0;recursiveResize=0;outlineConnect=0;portConstraint=eastwest;newEdgeStyle={&quot;curved&quot;:0,&quot;rounded&quot;:0};" parent="1" vertex="1">
          <mxGeometry x="650" y="1400" width="170" height="630" as="geometry" />
        </mxCell>
        <mxCell id="BAiD5vXmkqKVS3xAQffU-158" value="" style="html=1;points=[[0,0,0,0,5],[0,1,0,0,-5],[1,0,0,0,5],[1,1,0,0,-5]];perimeter=orthogonalPerimeter;outlineConnect=0;targetShapes=umlLifeline;portConstraint=eastwest;newEdgeStyle={&quot;curved&quot;:0,&quot;rounded&quot;:0};" parent="BAiD5vXmkqKVS3xAQffU-157" vertex="1">
          <mxGeometry x="80" y="180" width="10" height="360" as="geometry" />
        </mxCell>
        <mxCell id="BAiD5vXmkqKVS3xAQffU-159" value="BankService" style="shape=umlLifeline;perimeter=lifelinePerimeter;whiteSpace=wrap;html=1;container=1;dropTarget=0;collapsible=0;recursiveResize=0;outlineConnect=0;portConstraint=eastwest;newEdgeStyle={&quot;curved&quot;:0,&quot;rounded&quot;:0};" parent="1" vertex="1">
          <mxGeometry x="490" y="1400" width="100" height="630" as="geometry" />
        </mxCell>
        <mxCell id="BAiD5vXmkqKVS3xAQffU-160" value="" style="html=1;points=[[0,0,0,0,5],[0,1,0,0,-5],[1,0,0,0,5],[1,1,0,0,-5]];perimeter=orthogonalPerimeter;outlineConnect=0;targetShapes=umlLifeline;portConstraint=eastwest;newEdgeStyle={&quot;curved&quot;:0,&quot;rounded&quot;:0};" parent="BAiD5vXmkqKVS3xAQffU-159" vertex="1">
          <mxGeometry x="45" y="150" width="10" height="40" as="geometry" />
        </mxCell>
        <mxCell id="BAiD5vXmkqKVS3xAQffU-161" value="WithdrawAccountUsecase" style="shape=umlLifeline;perimeter=lifelinePerimeter;whiteSpace=wrap;html=1;container=1;dropTarget=0;collapsible=0;recursiveResize=0;outlineConnect=0;portConstraint=eastwest;newEdgeStyle={&quot;curved&quot;:0,&quot;rounded&quot;:0};" parent="1" vertex="1">
          <mxGeometry x="280" y="1400" width="150" height="630" as="geometry" />
        </mxCell>
        <mxCell id="BAiD5vXmkqKVS3xAQffU-162" value="" style="html=1;points=[[0,0,0,0,5],[0,1,0,0,-5],[1,0,0,0,5],[1,1,0,0,-5]];perimeter=orthogonalPerimeter;outlineConnect=0;targetShapes=umlLifeline;portConstraint=eastwest;newEdgeStyle={&quot;curved&quot;:0,&quot;rounded&quot;:0};" parent="BAiD5vXmkqKVS3xAQffU-161" vertex="1">
          <mxGeometry x="70" y="120" width="10" height="40" as="geometry" />
        </mxCell>
        <mxCell id="BAiD5vXmkqKVS3xAQffU-163" value="" style="shape=umlLifeline;perimeter=lifelinePerimeter;whiteSpace=wrap;html=1;container=1;dropTarget=0;collapsible=0;recursiveResize=0;outlineConnect=0;portConstraint=eastwest;newEdgeStyle={&quot;curved&quot;:0,&quot;rounded&quot;:0};participant=umlActor;" parent="1" vertex="1">
          <mxGeometry x="50" y="1400" width="20" height="630" as="geometry" />
        </mxCell>
        <mxCell id="BAiD5vXmkqKVS3xAQffU-164" value="" style="html=1;verticalAlign=bottom;startArrow=oval;startFill=1;endArrow=block;startSize=8;curved=0;rounded=0;entryX=0;entryY=0;entryDx=0;entryDy=5;entryPerimeter=0;" parent="1" source="BAiD5vXmkqKVS3xAQffU-163" target="BAiD5vXmkqKVS3xAQffU-154" edge="1">
          <mxGeometry width="60" relative="1" as="geometry">
            <mxPoint x="80" y="1488" as="sourcePoint" />
            <mxPoint x="170" y="1488" as="targetPoint" />
            <mxPoint as="offset" />
          </mxGeometry>
        </mxCell>
        <mxCell id="BAiD5vXmkqKVS3xAQffU-165" value="1: withdraw" style="text;html=1;align=center;verticalAlign=middle;resizable=0;points=[];autosize=1;strokeColor=none;fillColor=none;" parent="1" vertex="1">
          <mxGeometry x="70" y="1454" width="80" height="30" as="geometry" />
        </mxCell>
        <mxCell id="BAiD5vXmkqKVS3xAQffU-166" value="" style="endArrow=block;endFill=1;endSize=6;html=1;rounded=0;exitX=1;exitY=1;exitDx=0;exitDy=-5;exitPerimeter=0;startSize=8;entryX=0;entryY=0;entryDx=0;entryDy=5;entryPerimeter=0;" parent="1" source="BAiD5vXmkqKVS3xAQffU-154" target="BAiD5vXmkqKVS3xAQffU-162" edge="1">
          <mxGeometry width="160" relative="1" as="geometry">
            <mxPoint x="190" y="1520" as="sourcePoint" />
            <mxPoint x="350" y="1525" as="targetPoint" />
          </mxGeometry>
        </mxCell>
        <mxCell id="BAiD5vXmkqKVS3xAQffU-167" value="2: execute" style="text;html=1;align=center;verticalAlign=middle;resizable=0;points=[];autosize=1;strokeColor=none;fillColor=none;" parent="1" vertex="1">
          <mxGeometry x="220" y="1490" width="80" height="30" as="geometry" />
        </mxCell>
        <mxCell id="BAiD5vXmkqKVS3xAQffU-168" value="" style="endArrow=block;endFill=1;endSize=6;html=1;rounded=0;exitX=1;exitY=1;exitDx=0;exitDy=-5;exitPerimeter=0;startSize=8;entryX=0;entryY=0;entryDx=0;entryDy=5;entryPerimeter=0;" parent="1" source="BAiD5vXmkqKVS3xAQffU-162" target="BAiD5vXmkqKVS3xAQffU-160" edge="1">
          <mxGeometry width="160" relative="1" as="geometry">
            <mxPoint x="370" y="1560" as="sourcePoint" />
            <mxPoint x="540" y="1560" as="targetPoint" />
          </mxGeometry>
        </mxCell>
        <mxCell id="BAiD5vXmkqKVS3xAQffU-169" value="3: withdraw" style="text;html=1;align=center;verticalAlign=middle;resizable=0;points=[];autosize=1;strokeColor=none;fillColor=none;" parent="1" vertex="1">
          <mxGeometry x="410" y="1520" width="80" height="30" as="geometry" />
        </mxCell>
        <mxCell id="BAiD5vXmkqKVS3xAQffU-170" value="" style="endArrow=block;endFill=1;endSize=6;html=1;rounded=0;exitX=1;exitY=1;exitDx=0;exitDy=-5;exitPerimeter=0;startSize=8;entryX=0;entryY=0;entryDx=0;entryDy=5;entryPerimeter=0;" parent="1" source="BAiD5vXmkqKVS3xAQffU-160" target="BAiD5vXmkqKVS3xAQffU-158" edge="1">
          <mxGeometry width="160" relative="1" as="geometry">
            <mxPoint x="560" y="1591" as="sourcePoint" />
            <mxPoint x="740" y="1590" as="targetPoint" />
          </mxGeometry>
        </mxCell>
        <mxCell id="BAiD5vXmkqKVS3xAQffU-171" value="4: withdraw" style="text;html=1;align=center;verticalAlign=middle;resizable=0;points=[];autosize=1;strokeColor=none;fillColor=none;" parent="1" vertex="1">
          <mxGeometry x="595" y="1550" width="80" height="30" as="geometry" />
        </mxCell>
        <mxCell id="BAiD5vXmkqKVS3xAQffU-172" value="" style="endArrow=block;endFill=1;endSize=6;html=1;rounded=0;startSize=8;entryX=0;entryY=0;entryDx=0;entryDy=5;entryPerimeter=0;" parent="1" target="BAiD5vXmkqKVS3xAQffU-179" edge="1">
          <mxGeometry width="160" relative="1" as="geometry">
            <mxPoint x="740" y="1665" as="sourcePoint" />
            <mxPoint x="885" y="1665" as="targetPoint" />
          </mxGeometry>
        </mxCell>
        <mxCell id="BAiD5vXmkqKVS3xAQffU-173" value="6: withdraw" style="text;html=1;align=center;verticalAlign=middle;resizable=0;points=[];autosize=1;strokeColor=none;fillColor=none;" parent="1" vertex="1">
          <mxGeometry x="805" y="1630" width="80" height="30" as="geometry" />
        </mxCell>
        <mxCell id="BAiD5vXmkqKVS3xAQffU-174" value="DB" style="shape=umlLifeline;perimeter=lifelinePerimeter;whiteSpace=wrap;html=1;container=1;dropTarget=0;collapsible=0;recursiveResize=0;outlineConnect=0;portConstraint=eastwest;newEdgeStyle={&quot;curved&quot;:0,&quot;rounded&quot;:0};" parent="1" vertex="1">
          <mxGeometry x="1650" y="1400" width="140" height="630" as="geometry" />
        </mxCell>
        <mxCell id="BAiD5vXmkqKVS3xAQffU-175" value="" style="html=1;points=[[0,0,0,0,5],[0,1,0,0,-5],[1,0,0,0,5],[1,1,0,0,-5]];perimeter=orthogonalPerimeter;outlineConnect=0;targetShapes=umlLifeline;portConstraint=eastwest;newEdgeStyle={&quot;curved&quot;:0,&quot;rounded&quot;:0};" parent="BAiD5vXmkqKVS3xAQffU-174" vertex="1">
          <mxGeometry x="65" y="561" width="10" height="39" as="geometry" />
        </mxCell>
        <mxCell id="BAiD5vXmkqKVS3xAQffU-176" value="" style="endArrow=block;endFill=1;endSize=6;html=1;rounded=0;startSize=8;entryX=0;entryY=0;entryDx=0;entryDy=5;entryPerimeter=0;exitX=1;exitY=1;exitDx=0;exitDy=-5;exitPerimeter=0;" parent="1" source="BAiD5vXmkqKVS3xAQffU-156" target="BAiD5vXmkqKVS3xAQffU-175" edge="1">
          <mxGeometry width="160" relative="1" as="geometry">
            <mxPoint x="1510" y="1980" as="sourcePoint" />
            <mxPoint x="1715" y="1980" as="targetPoint" />
          </mxGeometry>
        </mxCell>
        <mxCell id="BAiD5vXmkqKVS3xAQffU-177" value="11: saveToDB" style="text;html=1;align=center;verticalAlign=middle;resizable=0;points=[];autosize=1;strokeColor=none;fillColor=none;" parent="1" vertex="1">
          <mxGeometry x="1555" y="1930" width="100" height="30" as="geometry" />
        </mxCell>
        <mxCell id="BAiD5vXmkqKVS3xAQffU-178" value="Account" style="shape=umlLifeline;perimeter=lifelinePerimeter;whiteSpace=wrap;html=1;container=1;dropTarget=0;collapsible=0;recursiveResize=0;outlineConnect=0;portConstraint=eastwest;newEdgeStyle={&quot;curved&quot;:0,&quot;rounded&quot;:0};" parent="1" vertex="1">
          <mxGeometry x="895" y="1400" width="100" height="630" as="geometry" />
        </mxCell>
        <mxCell id="BAiD5vXmkqKVS3xAQffU-179" value="" style="html=1;points=[[0,0,0,0,5],[0,1,0,0,-5],[1,0,0,0,5],[1,1,0,0,-5]];perimeter=orthogonalPerimeter;outlineConnect=0;targetShapes=umlLifeline;portConstraint=eastwest;newEdgeStyle={&quot;curved&quot;:0,&quot;rounded&quot;:0};" parent="BAiD5vXmkqKVS3xAQffU-178" vertex="1">
          <mxGeometry x="45" y="260" width="10" height="170" as="geometry" />
        </mxCell>
        <mxCell id="BAiD5vXmkqKVS3xAQffU-180" value="" style="html=1;points=[[0,0,0,0,5],[0,1,0,0,-5],[1,0,0,0,5],[1,1,0,0,-5]];perimeter=orthogonalPerimeter;outlineConnect=0;targetShapes=umlLifeline;portConstraint=eastwest;newEdgeStyle={&quot;curved&quot;:0,&quot;rounded&quot;:0};" parent="BAiD5vXmkqKVS3xAQffU-178" vertex="1">
          <mxGeometry x="50" y="370" width="10" height="40" as="geometry" />
        </mxCell>
        <mxCell id="BAiD5vXmkqKVS3xAQffU-181" value="8: addEntry" style="html=1;align=left;spacingLeft=2;endArrow=block;rounded=0;edgeStyle=orthogonalEdgeStyle;curved=0;rounded=0;" parent="BAiD5vXmkqKVS3xAQffU-178" target="BAiD5vXmkqKVS3xAQffU-180" edge="1">
          <mxGeometry relative="1" as="geometry">
            <mxPoint x="55" y="350" as="sourcePoint" />
            <Array as="points">
              <mxPoint x="85" y="380" />
            </Array>
            <mxPoint as="offset" />
          </mxGeometry>
        </mxCell>
        <mxCell id="BAiD5vXmkqKVS3xAQffU-182" value="AccountEntry" style="shape=umlLifeline;perimeter=lifelinePerimeter;whiteSpace=wrap;html=1;container=1;dropTarget=0;collapsible=0;recursiveResize=0;outlineConnect=0;portConstraint=eastwest;newEdgeStyle={&quot;curved&quot;:0,&quot;rounded&quot;:0};" parent="1" vertex="1">
          <mxGeometry x="1055" y="1400" width="140" height="630" as="geometry" />
        </mxCell>
        <mxCell id="BAiD5vXmkqKVS3xAQffU-183" value="" style="html=1;points=[[0,0,0,0,5],[0,1,0,0,-5],[1,0,0,0,5],[1,1,0,0,-5]];perimeter=orthogonalPerimeter;outlineConnect=0;targetShapes=umlLifeline;portConstraint=eastwest;newEdgeStyle={&quot;curved&quot;:0,&quot;rounded&quot;:0};" parent="BAiD5vXmkqKVS3xAQffU-182" vertex="1">
          <mxGeometry x="65" y="290" width="10" height="40" as="geometry" />
        </mxCell>
        <mxCell id="BAiD5vXmkqKVS3xAQffU-184" value="" style="endArrow=block;endFill=1;endSize=6;html=1;rounded=0;startSize=8;entryX=0;entryY=0;entryDx=0;entryDy=5;entryPerimeter=0;" parent="1" source="BAiD5vXmkqKVS3xAQffU-179" target="BAiD5vXmkqKVS3xAQffU-183" edge="1">
          <mxGeometry width="160" relative="1" as="geometry">
            <mxPoint x="1015" y="1650" as="sourcePoint" />
            <mxPoint x="1220" y="1650" as="targetPoint" />
          </mxGeometry>
        </mxCell>
        <mxCell id="BAiD5vXmkqKVS3xAQffU-185" value="7: new" style="text;html=1;align=center;verticalAlign=middle;resizable=0;points=[];autosize=1;strokeColor=none;fillColor=none;" parent="1" vertex="1">
          <mxGeometry x="1005" y="1660" width="60" height="30" as="geometry" />
        </mxCell>
        <mxCell id="BAiD5vXmkqKVS3xAQffU-186" value="EmailSender" style="shape=umlLifeline;perimeter=lifelinePerimeter;whiteSpace=wrap;html=1;container=1;dropTarget=0;collapsible=0;recursiveResize=0;outlineConnect=0;portConstraint=eastwest;newEdgeStyle={&quot;curved&quot;:0,&quot;rounded&quot;:0};" parent="1" vertex="1">
          <mxGeometry x="1245" y="1400" width="140" height="630" as="geometry" />
        </mxCell>
        <mxCell id="BAiD5vXmkqKVS3xAQffU-187" value="" style="html=1;points=[[0,0,0,0,5],[0,1,0,0,-5],[1,0,0,0,5],[1,1,0,0,-5]];perimeter=orthogonalPerimeter;outlineConnect=0;targetShapes=umlLifeline;portConstraint=eastwest;newEdgeStyle={&quot;curved&quot;:0,&quot;rounded&quot;:0};" parent="BAiD5vXmkqKVS3xAQffU-186" vertex="1">
          <mxGeometry x="65" y="460" width="10" height="40" as="geometry" />
        </mxCell>
        <mxCell id="BAiD5vXmkqKVS3xAQffU-188" value="" style="endArrow=block;endFill=1;endSize=6;html=1;rounded=0;startSize=8;entryX=0;entryY=0;entryDx=0;entryDy=5;entryPerimeter=0;" parent="1" target="BAiD5vXmkqKVS3xAQffU-187" edge="1">
          <mxGeometry width="160" relative="1" as="geometry">
            <mxPoint x="740" y="1865" as="sourcePoint" />
            <mxPoint x="930" y="1870" as="targetPoint" />
          </mxGeometry>
        </mxCell>
        <mxCell id="BAiD5vXmkqKVS3xAQffU-189" value="9: onUpdate" style="text;html=1;align=center;verticalAlign=middle;resizable=0;points=[];autosize=1;strokeColor=none;fillColor=none;" parent="1" vertex="1">
          <mxGeometry x="1000" y="1830" width="90" height="30" as="geometry" />
        </mxCell>
        <mxCell id="BAiD5vXmkqKVS3xAQffU-190" value="" style="endArrow=block;endFill=1;endSize=6;html=1;rounded=0;startSize=8;entryX=0;entryY=0;entryDx=0;entryDy=5;entryPerimeter=0;" parent="1" target="BAiD5vXmkqKVS3xAQffU-156" edge="1">
          <mxGeometry width="160" relative="1" as="geometry">
            <mxPoint x="740" y="1935" as="sourcePoint" />
            <mxPoint x="1479.5" y="1944.2899999999997" as="targetPoint" />
          </mxGeometry>
        </mxCell>
        <mxCell id="BAiD5vXmkqKVS3xAQffU-191" value="10: update" style="text;html=1;align=center;verticalAlign=middle;resizable=0;points=[];autosize=1;strokeColor=none;fillColor=none;" parent="1" vertex="1">
          <mxGeometry x="1010" y="1900" width="80" height="30" as="geometry" />
        </mxCell>
        <mxCell id="BAiD5vXmkqKVS3xAQffU-192" value="AccountRepository" style="shape=umlLifeline;perimeter=lifelinePerimeter;whiteSpace=wrap;html=1;container=1;dropTarget=0;collapsible=0;recursiveResize=0;outlineConnect=0;portConstraint=eastwest;newEdgeStyle={&quot;curved&quot;:0,&quot;rounded&quot;:0};" parent="1" vertex="1">
          <mxGeometry x="1500" y="2140" width="140" height="670" as="geometry" />
        </mxCell>
        <mxCell id="BAiD5vXmkqKVS3xAQffU-193" value="" style="html=1;points=[[0,0,0,0,5],[0,1,0,0,-5],[1,0,0,0,5],[1,1,0,0,-5]];perimeter=orthogonalPerimeter;outlineConnect=0;targetShapes=umlLifeline;portConstraint=eastwest;newEdgeStyle={&quot;curved&quot;:0,&quot;rounded&quot;:0};" parent="BAiD5vXmkqKVS3xAQffU-192" vertex="1">
          <mxGeometry x="65" y="577" width="10" height="40" as="geometry" />
        </mxCell>
        <mxCell id="YE1okfd42vqZ9Zn_DNne-124" value="" style="html=1;points=[[0,0,0,0,5],[0,1,0,0,-5],[1,0,0,0,5],[1,1,0,0,-5]];perimeter=orthogonalPerimeter;outlineConnect=0;targetShapes=umlLifeline;portConstraint=eastwest;newEdgeStyle={&quot;curved&quot;:0,&quot;rounded&quot;:0};" vertex="1" parent="BAiD5vXmkqKVS3xAQffU-192">
          <mxGeometry x="65" y="205" width="10" height="40" as="geometry" />
        </mxCell>
        <mxCell id="BAiD5vXmkqKVS3xAQffU-194" value="DB" style="shape=umlLifeline;perimeter=lifelinePerimeter;whiteSpace=wrap;html=1;container=1;dropTarget=0;collapsible=0;recursiveResize=0;outlineConnect=0;portConstraint=eastwest;newEdgeStyle={&quot;curved&quot;:0,&quot;rounded&quot;:0};" parent="1" vertex="1">
          <mxGeometry x="1725" y="2140" width="140" height="670" as="geometry" />
        </mxCell>
        <mxCell id="BAiD5vXmkqKVS3xAQffU-195" value="" style="html=1;points=[[0,0,0,0,5],[0,1,0,0,-5],[1,0,0,0,5],[1,1,0,0,-5]];perimeter=orthogonalPerimeter;outlineConnect=0;targetShapes=umlLifeline;portConstraint=eastwest;newEdgeStyle={&quot;curved&quot;:0,&quot;rounded&quot;:0};" parent="BAiD5vXmkqKVS3xAQffU-194" vertex="1">
          <mxGeometry x="65" y="608" width="10" height="39" as="geometry" />
        </mxCell>
        <mxCell id="BAiD5vXmkqKVS3xAQffU-196" value="" style="endArrow=block;endFill=1;endSize=6;html=1;rounded=0;startSize=8;entryX=0;entryY=0;entryDx=0;entryDy=5;entryPerimeter=0;exitX=1;exitY=1;exitDx=0;exitDy=-5;exitPerimeter=0;" parent="1" source="BAiD5vXmkqKVS3xAQffU-193" target="BAiD5vXmkqKVS3xAQffU-195" edge="1">
          <mxGeometry width="160" relative="1" as="geometry">
            <mxPoint x="1585" y="2767" as="sourcePoint" />
            <mxPoint x="1790" y="2767" as="targetPoint" />
          </mxGeometry>
        </mxCell>
        <mxCell id="BAiD5vXmkqKVS3xAQffU-197" value="11: saveToDB" style="text;html=1;align=center;verticalAlign=middle;resizable=0;points=[];autosize=1;strokeColor=none;fillColor=none;" parent="1" vertex="1">
          <mxGeometry x="1630" y="2717" width="100" height="30" as="geometry" />
        </mxCell>
        <mxCell id="BAiD5vXmkqKVS3xAQffU-198" value="" style="endArrow=block;endFill=1;endSize=6;html=1;rounded=0;startSize=8;entryX=0;entryY=0;entryDx=0;entryDy=5;entryPerimeter=0;" parent="1" target="BAiD5vXmkqKVS3xAQffU-193" edge="1">
          <mxGeometry width="160" relative="1" as="geometry">
            <mxPoint x="740" y="2722" as="sourcePoint" />
            <mxPoint x="1554.75" y="2727" as="targetPoint" />
          </mxGeometry>
        </mxCell>
        <mxCell id="BAiD5vXmkqKVS3xAQffU-199" value="10: update" style="text;html=1;align=center;verticalAlign=middle;resizable=0;points=[];autosize=1;strokeColor=none;fillColor=none;" parent="1" vertex="1">
          <mxGeometry x="1200" y="2687" width="80" height="30" as="geometry" />
        </mxCell>
        <mxCell id="BAiD5vXmkqKVS3xAQffU-200" value="&lt;font style=&quot;font-size: 18px;&quot;&gt;&lt;b&gt;1: Create banking account sequence diagram&lt;/b&gt;&lt;/font&gt;" style="text;html=1;align=center;verticalAlign=middle;resizable=0;points=[];autosize=1;strokeColor=none;fillColor=none;" parent="1" vertex="1">
          <mxGeometry x="35" y="53" width="410" height="40" as="geometry" />
        </mxCell>
        <mxCell id="BAiD5vXmkqKVS3xAQffU-201" value="&lt;font style=&quot;font-size: 18px;&quot;&gt;&lt;b&gt;2: Deposit banking account sequence diagram&lt;/b&gt;&lt;/font&gt;" style="text;html=1;align=center;verticalAlign=middle;resizable=0;points=[];autosize=1;strokeColor=none;fillColor=none;" parent="1" vertex="1">
          <mxGeometry x="40" y="570" width="420" height="40" as="geometry" />
        </mxCell>
        <mxCell id="BAiD5vXmkqKVS3xAQffU-203" value="&lt;font style=&quot;font-size: 18px;&quot;&gt;&lt;b&gt;3: Withdraw&lt;/b&gt;&lt;span style=&quot;color: rgba(0, 0, 0, 0); font-family: monospace; font-size: 0px; text-align: start;&quot;&gt;%3CmxGraphModel%3E%3Croot%3E%3CmxCell%20id%3D%220%22%2F%3E%3CmxCell%20id%3D%221%22%20parent%3D%220%22%2F%3E%3CmxCell%20id%3D%222%22%20value%3D%22%26lt%3Bfont%20style%3D%26quot%3Bfont-size%3A%2018px%3B%26quot%3B%26gt%3B%26lt%3Bb%26gt%3B2%3A%20Deposit%20banking%20account%20sequence%20diagram%26lt%3B%2Fb%26gt%3B%26lt%3B%2Ffont%26gt%3B%22%20style%3D%22text%3Bhtml%3D1%3Balign%3Dcenter%3BverticalAlign%3Dmiddle%3Bresizable%3D0%3Bpoints%3D%5B%5D%3Bautosize%3D1%3BstrokeColor%3Dnone%3BfillColor%3Dnone%3B%22%20vertex%3D%221%22%20parent%3D%221%22%3E%3CmxGeometry%20x%3D%2240%22%20y%3D%22570%22%20width%3D%22420%22%20height%3D%2240%22%20as%3D%22geometry%22%2F%3E%3C%2FmxCell%3E%3C%2Froot%3E%3C%2FmxGraphModel%3E&lt;/span&gt;&lt;b&gt;&amp;nbsp;banking account sequence diagram&lt;/b&gt;&lt;/font&gt;" style="text;html=1;align=center;verticalAlign=middle;resizable=0;points=[];autosize=1;strokeColor=none;fillColor=none;" parent="1" vertex="1">
          <mxGeometry x="30" y="1320" width="440" height="40" as="geometry" />
        </mxCell>
        <mxCell id="BAiD5vXmkqKVS3xAQffU-204" value="&lt;font style=&quot;font-size: 18px;&quot;&gt;&lt;b&gt;4: Add interest to all&lt;/b&gt;&lt;span style=&quot;color: rgba(0, 0, 0, 0); font-family: monospace; font-size: 0px; text-align: start;&quot;&gt;%3CmxGraphModel%3E%3Croot%3E%3CmxCell%20id%3D%220%22%2F%3E%3CmxCell%20id%3D%221%22%20parent%3D%220%22%2F%3E%3CmxCell%20id%3D%222%22%20value%3D%22%26lt%3Bfont%20style%3D%26quot%3Bfont-size%3A%2018px%3B%26quot%3B%26gt%3B%26lt%3Bb%26gt%3B2%3A%20Deposit%20banking%20account%20sequence%20diagram%26lt%3B%2Fb%26gt%3B%26lt%3B%2Ffont%26gt%3B%22%20style%3D%22text%3Bhtml%3D1%3Balign%3Dcenter%3BverticalAlign%3Dmiddle%3Bresizable%3D0%3Bpoints%3D%5B%5D%3Bautosize%3D1%3BstrokeColor%3Dnone%3BfillColor%3Dnone%3B%22%20vertex%3D%221%22%20parent%3D%221%22%3E%3CmxGeometry%20x%3D%2240%22%20y%3D%22570%22%20width%3D%22420%22%20height%3D%2240%22%20as%3D%22geometry%22%2F%3E%3C%2FmxCell%3E%3C%2Froot%3E%3C%2FmxGraphModel%3E&lt;/span&gt;&lt;b&gt;&amp;nbsp;banking accounts sequence diagram&lt;/b&gt;&lt;/font&gt;" style="text;html=1;align=center;verticalAlign=middle;resizable=0;points=[];autosize=1;strokeColor=none;fillColor=none;" parent="1" vertex="1">
          <mxGeometry x="35" y="2080" width="520" height="40" as="geometry" />
        </mxCell>
        <mxCell id="YE1okfd42vqZ9Zn_DNne-1" value="CreditApplication" style="shape=umlLifeline;perimeter=lifelinePerimeter;whiteSpace=wrap;html=1;container=1;dropTarget=0;collapsible=0;recursiveResize=0;outlineConnect=0;portConstraint=eastwest;newEdgeStyle={&quot;curved&quot;:0,&quot;rounded&quot;:0};" vertex="1" parent="1">
          <mxGeometry x="2080" y="651" width="100" height="620" as="geometry" />
        </mxCell>
        <mxCell id="YE1okfd42vqZ9Zn_DNne-2" value="" style="html=1;points=[[0,0,0,0,5],[0,1,0,0,-5],[1,0,0,0,5],[1,1,0,0,-5]];perimeter=orthogonalPerimeter;outlineConnect=0;targetShapes=umlLifeline;portConstraint=eastwest;newEdgeStyle={&quot;curved&quot;:0,&quot;rounded&quot;:0};" vertex="1" parent="YE1okfd42vqZ9Zn_DNne-1">
          <mxGeometry x="45" y="90" width="10" height="40" as="geometry" />
        </mxCell>
        <mxCell id="YE1okfd42vqZ9Zn_DNne-3" value="AccountRepository" style="shape=umlLifeline;perimeter=lifelinePerimeter;whiteSpace=wrap;html=1;container=1;dropTarget=0;collapsible=0;recursiveResize=0;outlineConnect=0;portConstraint=eastwest;newEdgeStyle={&quot;curved&quot;:0,&quot;rounded&quot;:0};" vertex="1" parent="1">
          <mxGeometry x="3200" y="651" width="140" height="620" as="geometry" />
        </mxCell>
        <mxCell id="YE1okfd42vqZ9Zn_DNne-56" value="" style="html=1;points=[[0,0,0,0,5],[0,1,0,0,-5],[1,0,0,0,5],[1,1,0,0,-5]];perimeter=orthogonalPerimeter;outlineConnect=0;targetShapes=umlLifeline;portConstraint=eastwest;newEdgeStyle={&quot;curved&quot;:0,&quot;rounded&quot;:0};" vertex="1" parent="YE1okfd42vqZ9Zn_DNne-3">
          <mxGeometry x="64.5" y="525" width="10" height="40" as="geometry" />
        </mxCell>
        <mxCell id="YE1okfd42vqZ9Zn_DNne-116" value="" style="html=1;points=[[0,0,0,0,5],[0,1,0,0,-5],[1,0,0,0,5],[1,1,0,0,-5]];perimeter=orthogonalPerimeter;outlineConnect=0;targetShapes=umlLifeline;portConstraint=eastwest;newEdgeStyle={&quot;curved&quot;:0,&quot;rounded&quot;:0};" vertex="1" parent="YE1okfd42vqZ9Zn_DNne-3">
          <mxGeometry x="65.5" y="205" width="10" height="30" as="geometry" />
        </mxCell>
        <mxCell id="YE1okfd42vqZ9Zn_DNne-5" value="AccountOperationService" style="shape=umlLifeline;perimeter=lifelinePerimeter;whiteSpace=wrap;html=1;container=1;dropTarget=0;collapsible=0;recursiveResize=0;outlineConnect=0;portConstraint=eastwest;newEdgeStyle={&quot;curved&quot;:0,&quot;rounded&quot;:0};" vertex="1" parent="1">
          <mxGeometry x="2610" y="651" width="170" height="620" as="geometry" />
        </mxCell>
        <mxCell id="YE1okfd42vqZ9Zn_DNne-53" value="" style="html=1;points=[[0,0,0,0,5],[0,1,0,0,-5],[1,0,0,0,5],[1,1,0,0,-5]];perimeter=orthogonalPerimeter;outlineConnect=0;targetShapes=umlLifeline;portConstraint=eastwest;newEdgeStyle={&quot;curved&quot;:0,&quot;rounded&quot;:0};" vertex="1" parent="YE1okfd42vqZ9Zn_DNne-5">
          <mxGeometry x="79.5" y="465" width="10" height="40" as="geometry" />
        </mxCell>
        <mxCell id="YE1okfd42vqZ9Zn_DNne-7" value="CreditCardService" style="shape=umlLifeline;perimeter=lifelinePerimeter;whiteSpace=wrap;html=1;container=1;dropTarget=0;collapsible=0;recursiveResize=0;outlineConnect=0;portConstraint=eastwest;newEdgeStyle={&quot;curved&quot;:0,&quot;rounded&quot;:0};" vertex="1" parent="1">
          <mxGeometry x="2447" y="651" width="110" height="620" as="geometry" />
        </mxCell>
        <mxCell id="YE1okfd42vqZ9Zn_DNne-8" value="" style="html=1;points=[[0,0,0,0,5],[0,1,0,0,-5],[1,0,0,0,5],[1,1,0,0,-5]];perimeter=orthogonalPerimeter;outlineConnect=0;targetShapes=umlLifeline;portConstraint=eastwest;newEdgeStyle={&quot;curved&quot;:0,&quot;rounded&quot;:0};" vertex="1" parent="YE1okfd42vqZ9Zn_DNne-7">
          <mxGeometry x="50" y="150" width="10" height="390" as="geometry" />
        </mxCell>
        <mxCell id="YE1okfd42vqZ9Zn_DNne-9" value="DepositCreditAccountUsecase" style="shape=umlLifeline;perimeter=lifelinePerimeter;whiteSpace=wrap;html=1;container=1;dropTarget=0;collapsible=0;recursiveResize=0;outlineConnect=0;portConstraint=eastwest;newEdgeStyle={&quot;curved&quot;:0,&quot;rounded&quot;:0};" vertex="1" parent="1">
          <mxGeometry x="2225" y="651" width="170" height="620" as="geometry" />
        </mxCell>
        <mxCell id="YE1okfd42vqZ9Zn_DNne-10" value="" style="html=1;points=[[0,0,0,0,5],[0,1,0,0,-5],[1,0,0,0,5],[1,1,0,0,-5]];perimeter=orthogonalPerimeter;outlineConnect=0;targetShapes=umlLifeline;portConstraint=eastwest;newEdgeStyle={&quot;curved&quot;:0,&quot;rounded&quot;:0};" vertex="1" parent="YE1okfd42vqZ9Zn_DNne-9">
          <mxGeometry x="80" y="120" width="10" height="40" as="geometry" />
        </mxCell>
        <mxCell id="YE1okfd42vqZ9Zn_DNne-11" value="" style="shape=umlLifeline;perimeter=lifelinePerimeter;whiteSpace=wrap;html=1;container=1;dropTarget=0;collapsible=0;recursiveResize=0;outlineConnect=0;portConstraint=eastwest;newEdgeStyle={&quot;curved&quot;:0,&quot;rounded&quot;:0};participant=umlActor;" vertex="1" parent="1">
          <mxGeometry x="2010" y="651" width="20" height="620" as="geometry" />
        </mxCell>
        <mxCell id="YE1okfd42vqZ9Zn_DNne-12" value="" style="html=1;verticalAlign=bottom;startArrow=oval;startFill=1;endArrow=block;startSize=8;curved=0;rounded=0;entryX=0;entryY=0;entryDx=0;entryDy=5;entryPerimeter=0;" edge="1" parent="1" source="YE1okfd42vqZ9Zn_DNne-11" target="YE1okfd42vqZ9Zn_DNne-2">
          <mxGeometry width="60" relative="1" as="geometry">
            <mxPoint x="2040" y="739" as="sourcePoint" />
            <mxPoint x="2130" y="739" as="targetPoint" />
            <mxPoint as="offset" />
          </mxGeometry>
        </mxCell>
        <mxCell id="YE1okfd42vqZ9Zn_DNne-13" value="1: deposit" style="text;html=1;align=center;verticalAlign=middle;resizable=0;points=[];autosize=1;strokeColor=none;fillColor=none;" vertex="1" parent="1">
          <mxGeometry x="2030" y="705" width="80" height="30" as="geometry" />
        </mxCell>
        <mxCell id="YE1okfd42vqZ9Zn_DNne-14" value="" style="endArrow=block;endFill=1;endSize=6;html=1;rounded=0;exitX=1;exitY=1;exitDx=0;exitDy=-5;exitPerimeter=0;startSize=8;entryX=0;entryY=0;entryDx=0;entryDy=5;entryPerimeter=0;" edge="1" parent="1" source="YE1okfd42vqZ9Zn_DNne-2" target="YE1okfd42vqZ9Zn_DNne-10">
          <mxGeometry width="160" relative="1" as="geometry">
            <mxPoint x="2150" y="771" as="sourcePoint" />
            <mxPoint x="2310" y="776" as="targetPoint" />
          </mxGeometry>
        </mxCell>
        <mxCell id="YE1okfd42vqZ9Zn_DNne-15" value="2: execute" style="text;html=1;align=center;verticalAlign=middle;resizable=0;points=[];autosize=1;strokeColor=none;fillColor=none;" vertex="1" parent="1">
          <mxGeometry x="2180" y="741" width="80" height="30" as="geometry" />
        </mxCell>
        <mxCell id="YE1okfd42vqZ9Zn_DNne-16" value="" style="endArrow=block;endFill=1;endSize=6;html=1;rounded=0;exitX=1;exitY=1;exitDx=0;exitDy=-5;exitPerimeter=0;startSize=8;entryX=0;entryY=0;entryDx=0;entryDy=5;entryPerimeter=0;" edge="1" parent="1" source="YE1okfd42vqZ9Zn_DNne-10" target="YE1okfd42vqZ9Zn_DNne-8">
          <mxGeometry width="160" relative="1" as="geometry">
            <mxPoint x="2330" y="811" as="sourcePoint" />
            <mxPoint x="2500" y="811" as="targetPoint" />
          </mxGeometry>
        </mxCell>
        <mxCell id="YE1okfd42vqZ9Zn_DNne-17" value="3: deposit" style="text;html=1;align=center;verticalAlign=middle;resizable=0;points=[];autosize=1;strokeColor=none;fillColor=none;" vertex="1" parent="1">
          <mxGeometry x="2370" y="771" width="80" height="30" as="geometry" />
        </mxCell>
        <mxCell id="YE1okfd42vqZ9Zn_DNne-18" value="" style="endArrow=block;endFill=1;endSize=6;html=1;rounded=0;startSize=8;entryX=0;entryY=0;entryDx=0;entryDy=5;entryPerimeter=0;" edge="1" parent="1" target="YE1okfd42vqZ9Zn_DNne-47">
          <mxGeometry width="160" relative="1" as="geometry">
            <mxPoint x="2506.5" y="921" as="sourcePoint" />
            <mxPoint x="2689.5" y="921" as="targetPoint" />
          </mxGeometry>
        </mxCell>
        <mxCell id="YE1okfd42vqZ9Zn_DNne-19" value="5: deposit" style="text;html=1;align=center;verticalAlign=middle;resizable=0;points=[];autosize=1;strokeColor=none;fillColor=none;" vertex="1" parent="1">
          <mxGeometry x="2719.5" y="886" width="80" height="30" as="geometry" />
        </mxCell>
        <mxCell id="YE1okfd42vqZ9Zn_DNne-22" value="DB" style="shape=umlLifeline;perimeter=lifelinePerimeter;whiteSpace=wrap;html=1;container=1;dropTarget=0;collapsible=0;recursiveResize=0;outlineConnect=0;portConstraint=eastwest;newEdgeStyle={&quot;curved&quot;:0,&quot;rounded&quot;:0};" vertex="1" parent="1">
          <mxGeometry x="3400" y="651" width="140" height="620" as="geometry" />
        </mxCell>
        <mxCell id="YE1okfd42vqZ9Zn_DNne-26" value="Account" style="shape=umlLifeline;perimeter=lifelinePerimeter;whiteSpace=wrap;html=1;container=1;dropTarget=0;collapsible=0;recursiveResize=0;outlineConnect=0;portConstraint=eastwest;newEdgeStyle={&quot;curved&quot;:0,&quot;rounded&quot;:0};" vertex="1" parent="1">
          <mxGeometry x="2840" y="651" width="120" height="620" as="geometry" />
        </mxCell>
        <mxCell id="YE1okfd42vqZ9Zn_DNne-47" value="" style="html=1;points=[[0,0,0,0,5],[0,1,0,0,-5],[1,0,0,0,5],[1,1,0,0,-5]];perimeter=orthogonalPerimeter;outlineConnect=0;targetShapes=umlLifeline;portConstraint=eastwest;newEdgeStyle={&quot;curved&quot;:0,&quot;rounded&quot;:0};" vertex="1" parent="YE1okfd42vqZ9Zn_DNne-26">
          <mxGeometry x="54.5" y="265" width="10" height="170" as="geometry" />
        </mxCell>
        <mxCell id="YE1okfd42vqZ9Zn_DNne-48" value="" style="html=1;points=[[0,0,0,0,5],[0,1,0,0,-5],[1,0,0,0,5],[1,1,0,0,-5]];perimeter=orthogonalPerimeter;outlineConnect=0;targetShapes=umlLifeline;portConstraint=eastwest;newEdgeStyle={&quot;curved&quot;:0,&quot;rounded&quot;:0};" vertex="1" parent="YE1okfd42vqZ9Zn_DNne-26">
          <mxGeometry x="59.5" y="375" width="10" height="40" as="geometry" />
        </mxCell>
        <mxCell id="YE1okfd42vqZ9Zn_DNne-49" value="7: addEntry" style="html=1;align=left;spacingLeft=2;endArrow=block;rounded=0;edgeStyle=orthogonalEdgeStyle;curved=0;rounded=0;" edge="1" parent="YE1okfd42vqZ9Zn_DNne-26" target="YE1okfd42vqZ9Zn_DNne-48">
          <mxGeometry relative="1" as="geometry">
            <mxPoint x="64.5" y="355" as="sourcePoint" />
            <Array as="points">
              <mxPoint x="94.5" y="385" />
            </Array>
          </mxGeometry>
        </mxCell>
        <mxCell id="YE1okfd42vqZ9Zn_DNne-50" value="" style="html=1;points=[[0,0,0,0,5],[0,1,0,0,-5],[1,0,0,0,5],[1,1,0,0,-5]];perimeter=orthogonalPerimeter;outlineConnect=0;targetShapes=umlLifeline;portConstraint=eastwest;newEdgeStyle={&quot;curved&quot;:0,&quot;rounded&quot;:0};" vertex="1" parent="YE1okfd42vqZ9Zn_DNne-26">
          <mxGeometry x="239.5" y="295" width="10" height="40" as="geometry" />
        </mxCell>
        <mxCell id="YE1okfd42vqZ9Zn_DNne-51" value="" style="endArrow=block;endFill=1;endSize=6;html=1;rounded=0;startSize=8;entryX=0;entryY=0;entryDx=0;entryDy=5;entryPerimeter=0;" edge="1" parent="YE1okfd42vqZ9Zn_DNne-26" source="YE1okfd42vqZ9Zn_DNne-47" target="YE1okfd42vqZ9Zn_DNne-50">
          <mxGeometry width="160" relative="1" as="geometry">
            <mxPoint x="129.5" y="255" as="sourcePoint" />
            <mxPoint x="334.5" y="255" as="targetPoint" />
          </mxGeometry>
        </mxCell>
        <mxCell id="YE1okfd42vqZ9Zn_DNne-52" value="6: new" style="text;html=1;align=center;verticalAlign=middle;resizable=0;points=[];autosize=1;strokeColor=none;fillColor=none;" vertex="1" parent="YE1okfd42vqZ9Zn_DNne-26">
          <mxGeometry x="119.5" y="265" width="60" height="30" as="geometry" />
        </mxCell>
        <mxCell id="YE1okfd42vqZ9Zn_DNne-40" value="&lt;font style=&quot;font-size: 18px;&quot;&gt;&lt;b&gt;5: Deposit credit account sequence diagram&lt;/b&gt;&lt;/font&gt;" style="text;html=1;align=center;verticalAlign=middle;resizable=0;points=[];autosize=1;strokeColor=none;fillColor=none;" vertex="1" parent="1">
          <mxGeometry x="2015" y="591" width="400" height="40" as="geometry" />
        </mxCell>
        <mxCell id="YE1okfd42vqZ9Zn_DNne-54" value="" style="endArrow=block;endFill=1;endSize=6;html=1;rounded=0;startSize=8;entryX=0;entryY=0;entryDx=0;entryDy=5;entryPerimeter=0;" edge="1" parent="1" target="YE1okfd42vqZ9Zn_DNne-53">
          <mxGeometry width="160" relative="1" as="geometry">
            <mxPoint x="2506.5" y="1121" as="sourcePoint" />
            <mxPoint x="2682" y="1116" as="targetPoint" />
          </mxGeometry>
        </mxCell>
        <mxCell id="YE1okfd42vqZ9Zn_DNne-55" value="8: getRepository" style="text;html=1;align=center;verticalAlign=middle;resizable=0;points=[];autosize=1;strokeColor=none;fillColor=none;" vertex="1" parent="1">
          <mxGeometry x="2544.5" y="1086" width="110" height="30" as="geometry" />
        </mxCell>
        <mxCell id="YE1okfd42vqZ9Zn_DNne-57" value="" style="endArrow=block;endFill=1;endSize=6;html=1;rounded=0;startSize=8;entryX=0;entryY=0;entryDx=0;entryDy=5;entryPerimeter=0;exitX=1;exitY=1;exitDx=0;exitDy=-5;exitPerimeter=0;" edge="1" parent="1" source="YE1okfd42vqZ9Zn_DNne-8" target="YE1okfd42vqZ9Zn_DNne-56">
          <mxGeometry width="160" relative="1" as="geometry">
            <mxPoint x="2506.5" y="1181" as="sourcePoint" />
            <mxPoint x="3222.5" y="1186" as="targetPoint" />
          </mxGeometry>
        </mxCell>
        <mxCell id="YE1okfd42vqZ9Zn_DNne-58" value="9: update" style="text;html=1;align=center;verticalAlign=middle;resizable=0;points=[];autosize=1;strokeColor=none;fillColor=none;" vertex="1" parent="1">
          <mxGeometry x="2784.5" y="1146" width="70" height="30" as="geometry" />
        </mxCell>
        <mxCell id="YE1okfd42vqZ9Zn_DNne-59" value="" style="html=1;points=[[0,0,0,0,5],[0,1,0,0,-5],[1,0,0,0,5],[1,1,0,0,-5]];perimeter=orthogonalPerimeter;outlineConnect=0;targetShapes=umlLifeline;portConstraint=eastwest;newEdgeStyle={&quot;curved&quot;:0,&quot;rounded&quot;:0};" vertex="1" parent="1">
          <mxGeometry x="3465.5" y="1207" width="10" height="39" as="geometry" />
        </mxCell>
        <mxCell id="YE1okfd42vqZ9Zn_DNne-60" value="10: saveToDB" style="text;html=1;align=center;verticalAlign=middle;resizable=0;points=[];autosize=1;strokeColor=none;fillColor=none;" vertex="1" parent="1">
          <mxGeometry x="3319.5" y="1186" width="100" height="30" as="geometry" />
        </mxCell>
        <mxCell id="YE1okfd42vqZ9Zn_DNne-61" value="" style="endArrow=block;endFill=1;endSize=6;html=1;rounded=0;startSize=8;entryX=0;entryY=0;entryDx=0;entryDy=5;entryPerimeter=0;exitX=1;exitY=1;exitDx=0;exitDy=-5;exitPerimeter=0;" edge="1" parent="1" source="YE1okfd42vqZ9Zn_DNne-56" target="YE1okfd42vqZ9Zn_DNne-59">
          <mxGeometry width="160" relative="1" as="geometry">
            <mxPoint x="3290.5" y="1216" as="sourcePoint" />
            <mxPoint x="3465.5" y="1216" as="targetPoint" />
          </mxGeometry>
        </mxCell>
        <mxCell id="YE1okfd42vqZ9Zn_DNne-62" value="AccountEntry" style="shape=umlLifeline;perimeter=lifelinePerimeter;whiteSpace=wrap;html=1;container=1;dropTarget=0;collapsible=0;recursiveResize=0;outlineConnect=0;portConstraint=eastwest;newEdgeStyle={&quot;curved&quot;:0,&quot;rounded&quot;:0};" vertex="1" parent="1">
          <mxGeometry x="3005" y="1385" width="135" height="700" as="geometry" />
        </mxCell>
        <mxCell id="YE1okfd42vqZ9Zn_DNne-101" value="" style="html=1;points=[[0,0,0,0,5],[0,1,0,0,-5],[1,0,0,0,5],[1,1,0,0,-5]];perimeter=orthogonalPerimeter;outlineConnect=0;targetShapes=umlLifeline;portConstraint=eastwest;newEdgeStyle={&quot;curved&quot;:0,&quot;rounded&quot;:0};" vertex="1" parent="YE1okfd42vqZ9Zn_DNne-62">
          <mxGeometry x="235" y="472" width="10" height="40" as="geometry" />
        </mxCell>
        <mxCell id="YE1okfd42vqZ9Zn_DNne-99" value="" style="endArrow=block;endFill=1;endSize=6;html=1;rounded=0;startSize=8;entryX=0;entryY=0;entryDx=0;entryDy=5;entryPerimeter=0;" edge="1" parent="YE1okfd42vqZ9Zn_DNne-62" target="YE1okfd42vqZ9Zn_DNne-101">
          <mxGeometry width="160" relative="1" as="geometry">
            <mxPoint x="-508" y="477" as="sourcePoint" />
            <mxPoint x="239" y="472" as="targetPoint" />
          </mxGeometry>
        </mxCell>
        <mxCell id="YE1okfd42vqZ9Zn_DNne-63" value="CreditApplication" style="shape=umlLifeline;perimeter=lifelinePerimeter;whiteSpace=wrap;html=1;container=1;dropTarget=0;collapsible=0;recursiveResize=0;outlineConnect=0;portConstraint=eastwest;newEdgeStyle={&quot;curved&quot;:0,&quot;rounded&quot;:0};" vertex="1" parent="1">
          <mxGeometry x="2070" y="1385" width="100" height="700" as="geometry" />
        </mxCell>
        <mxCell id="YE1okfd42vqZ9Zn_DNne-64" value="" style="html=1;points=[[0,0,0,0,5],[0,1,0,0,-5],[1,0,0,0,5],[1,1,0,0,-5]];perimeter=orthogonalPerimeter;outlineConnect=0;targetShapes=umlLifeline;portConstraint=eastwest;newEdgeStyle={&quot;curved&quot;:0,&quot;rounded&quot;:0};" vertex="1" parent="YE1okfd42vqZ9Zn_DNne-63">
          <mxGeometry x="45" y="90" width="10" height="40" as="geometry" />
        </mxCell>
        <mxCell id="YE1okfd42vqZ9Zn_DNne-65" value="AccountRepository" style="shape=umlLifeline;perimeter=lifelinePerimeter;whiteSpace=wrap;html=1;container=1;dropTarget=0;collapsible=0;recursiveResize=0;outlineConnect=0;portConstraint=eastwest;newEdgeStyle={&quot;curved&quot;:0,&quot;rounded&quot;:0};" vertex="1" parent="1">
          <mxGeometry x="3340" y="1385" width="140" height="700" as="geometry" />
        </mxCell>
        <mxCell id="YE1okfd42vqZ9Zn_DNne-66" value="" style="html=1;points=[[0,0,0,0,5],[0,1,0,0,-5],[1,0,0,0,5],[1,1,0,0,-5]];perimeter=orthogonalPerimeter;outlineConnect=0;targetShapes=umlLifeline;portConstraint=eastwest;newEdgeStyle={&quot;curved&quot;:0,&quot;rounded&quot;:0};" vertex="1" parent="YE1okfd42vqZ9Zn_DNne-65">
          <mxGeometry x="65" y="592" width="10" height="40" as="geometry" />
        </mxCell>
        <mxCell id="YE1okfd42vqZ9Zn_DNne-108" value="" style="html=1;points=[[0,0,0,0,5],[0,1,0,0,-5],[1,0,0,0,5],[1,1,0,0,-5]];perimeter=orthogonalPerimeter;outlineConnect=0;targetShapes=umlLifeline;portConstraint=eastwest;newEdgeStyle={&quot;curved&quot;:0,&quot;rounded&quot;:0};" vertex="1" parent="YE1okfd42vqZ9Zn_DNne-65">
          <mxGeometry x="65" y="210" width="10" height="30" as="geometry" />
        </mxCell>
        <mxCell id="YE1okfd42vqZ9Zn_DNne-67" value="AccountOperationService" style="shape=umlLifeline;perimeter=lifelinePerimeter;whiteSpace=wrap;html=1;container=1;dropTarget=0;collapsible=0;recursiveResize=0;outlineConnect=0;portConstraint=eastwest;newEdgeStyle={&quot;curved&quot;:0,&quot;rounded&quot;:0};" vertex="1" parent="1">
          <mxGeometry x="2600" y="1385" width="170" height="700" as="geometry" />
        </mxCell>
        <mxCell id="YE1okfd42vqZ9Zn_DNne-68" value="" style="html=1;points=[[0,0,0,0,5],[0,1,0,0,-5],[1,0,0,0,5],[1,1,0,0,-5]];perimeter=orthogonalPerimeter;outlineConnect=0;targetShapes=umlLifeline;portConstraint=eastwest;newEdgeStyle={&quot;curved&quot;:0,&quot;rounded&quot;:0};" vertex="1" parent="YE1okfd42vqZ9Zn_DNne-67">
          <mxGeometry x="80" y="532" width="10" height="40" as="geometry" />
        </mxCell>
        <mxCell id="YE1okfd42vqZ9Zn_DNne-105" value="" style="html=1;points=[[0,0,0,0,5],[0,1,0,0,-5],[1,0,0,0,5],[1,1,0,0,-5]];perimeter=orthogonalPerimeter;outlineConnect=0;targetShapes=umlLifeline;portConstraint=eastwest;newEdgeStyle={&quot;curved&quot;:0,&quot;rounded&quot;:0};" vertex="1" parent="YE1okfd42vqZ9Zn_DNne-67">
          <mxGeometry x="80" y="180" width="10" height="40" as="geometry" />
        </mxCell>
        <mxCell id="YE1okfd42vqZ9Zn_DNne-69" value="CreditCardService" style="shape=umlLifeline;perimeter=lifelinePerimeter;whiteSpace=wrap;html=1;container=1;dropTarget=0;collapsible=0;recursiveResize=0;outlineConnect=0;portConstraint=eastwest;newEdgeStyle={&quot;curved&quot;:0,&quot;rounded&quot;:0};" vertex="1" parent="1">
          <mxGeometry x="2437" y="1385" width="110" height="700" as="geometry" />
        </mxCell>
        <mxCell id="YE1okfd42vqZ9Zn_DNne-70" value="" style="html=1;points=[[0,0,0,0,5],[0,1,0,0,-5],[1,0,0,0,5],[1,1,0,0,-5]];perimeter=orthogonalPerimeter;outlineConnect=0;targetShapes=umlLifeline;portConstraint=eastwest;newEdgeStyle={&quot;curved&quot;:0,&quot;rounded&quot;:0};" vertex="1" parent="YE1okfd42vqZ9Zn_DNne-69">
          <mxGeometry x="50" y="150" width="10" height="450" as="geometry" />
        </mxCell>
        <mxCell id="YE1okfd42vqZ9Zn_DNne-71" value="WithdrawCreditAccountUsecase" style="shape=umlLifeline;perimeter=lifelinePerimeter;whiteSpace=wrap;html=1;container=1;dropTarget=0;collapsible=0;recursiveResize=0;outlineConnect=0;portConstraint=eastwest;newEdgeStyle={&quot;curved&quot;:0,&quot;rounded&quot;:0};" vertex="1" parent="1">
          <mxGeometry x="2215" y="1385" width="170" height="700" as="geometry" />
        </mxCell>
        <mxCell id="YE1okfd42vqZ9Zn_DNne-72" value="" style="html=1;points=[[0,0,0,0,5],[0,1,0,0,-5],[1,0,0,0,5],[1,1,0,0,-5]];perimeter=orthogonalPerimeter;outlineConnect=0;targetShapes=umlLifeline;portConstraint=eastwest;newEdgeStyle={&quot;curved&quot;:0,&quot;rounded&quot;:0};" vertex="1" parent="YE1okfd42vqZ9Zn_DNne-71">
          <mxGeometry x="80" y="120" width="10" height="40" as="geometry" />
        </mxCell>
        <mxCell id="YE1okfd42vqZ9Zn_DNne-73" value="" style="shape=umlLifeline;perimeter=lifelinePerimeter;whiteSpace=wrap;html=1;container=1;dropTarget=0;collapsible=0;recursiveResize=0;outlineConnect=0;portConstraint=eastwest;newEdgeStyle={&quot;curved&quot;:0,&quot;rounded&quot;:0};participant=umlActor;" vertex="1" parent="1">
          <mxGeometry x="2000" y="1385" width="20" height="700" as="geometry" />
        </mxCell>
        <mxCell id="YE1okfd42vqZ9Zn_DNne-74" value="" style="html=1;verticalAlign=bottom;startArrow=oval;startFill=1;endArrow=block;startSize=8;curved=0;rounded=0;entryX=0;entryY=0;entryDx=0;entryDy=5;entryPerimeter=0;" edge="1" parent="1" source="YE1okfd42vqZ9Zn_DNne-73" target="YE1okfd42vqZ9Zn_DNne-64">
          <mxGeometry width="60" relative="1" as="geometry">
            <mxPoint x="2030" y="1473" as="sourcePoint" />
            <mxPoint x="2120" y="1473" as="targetPoint" />
            <mxPoint as="offset" />
          </mxGeometry>
        </mxCell>
        <mxCell id="YE1okfd42vqZ9Zn_DNne-75" value="1: charge" style="text;html=1;align=center;verticalAlign=middle;resizable=0;points=[];autosize=1;strokeColor=none;fillColor=none;" vertex="1" parent="1">
          <mxGeometry x="2025" y="1439" width="70" height="30" as="geometry" />
        </mxCell>
        <mxCell id="YE1okfd42vqZ9Zn_DNne-76" value="" style="endArrow=block;endFill=1;endSize=6;html=1;rounded=0;exitX=1;exitY=1;exitDx=0;exitDy=-5;exitPerimeter=0;startSize=8;entryX=0;entryY=0;entryDx=0;entryDy=5;entryPerimeter=0;" edge="1" parent="1" source="YE1okfd42vqZ9Zn_DNne-64" target="YE1okfd42vqZ9Zn_DNne-72">
          <mxGeometry width="160" relative="1" as="geometry">
            <mxPoint x="2140" y="1505" as="sourcePoint" />
            <mxPoint x="2300" y="1510" as="targetPoint" />
          </mxGeometry>
        </mxCell>
        <mxCell id="YE1okfd42vqZ9Zn_DNne-77" value="2: execute" style="text;html=1;align=center;verticalAlign=middle;resizable=0;points=[];autosize=1;strokeColor=none;fillColor=none;" vertex="1" parent="1">
          <mxGeometry x="2170" y="1475" width="80" height="30" as="geometry" />
        </mxCell>
        <mxCell id="YE1okfd42vqZ9Zn_DNne-78" value="" style="endArrow=block;endFill=1;endSize=6;html=1;rounded=0;exitX=1;exitY=1;exitDx=0;exitDy=-5;exitPerimeter=0;startSize=8;entryX=0;entryY=0;entryDx=0;entryDy=5;entryPerimeter=0;" edge="1" parent="1" source="YE1okfd42vqZ9Zn_DNne-72" target="YE1okfd42vqZ9Zn_DNne-70">
          <mxGeometry width="160" relative="1" as="geometry">
            <mxPoint x="2320" y="1545" as="sourcePoint" />
            <mxPoint x="2490" y="1545" as="targetPoint" />
          </mxGeometry>
        </mxCell>
        <mxCell id="YE1okfd42vqZ9Zn_DNne-79" value="3: charge" style="text;html=1;align=center;verticalAlign=middle;resizable=0;points=[];autosize=1;strokeColor=none;fillColor=none;" vertex="1" parent="1">
          <mxGeometry x="2365" y="1505" width="70" height="30" as="geometry" />
        </mxCell>
        <mxCell id="YE1okfd42vqZ9Zn_DNne-80" value="" style="endArrow=block;endFill=1;endSize=6;html=1;rounded=0;startSize=8;entryX=0;entryY=0;entryDx=0;entryDy=5;entryPerimeter=0;" edge="1" parent="1" target="YE1okfd42vqZ9Zn_DNne-84">
          <mxGeometry width="160" relative="1" as="geometry">
            <mxPoint x="2497" y="1662" as="sourcePoint" />
            <mxPoint x="2680" y="1662" as="targetPoint" />
          </mxGeometry>
        </mxCell>
        <mxCell id="YE1okfd42vqZ9Zn_DNne-81" value="6: withdraw" style="text;html=1;align=center;verticalAlign=middle;resizable=0;points=[];autosize=1;strokeColor=none;fillColor=none;" vertex="1" parent="1">
          <mxGeometry x="2710" y="1627" width="80" height="30" as="geometry" />
        </mxCell>
        <mxCell id="YE1okfd42vqZ9Zn_DNne-82" value="DB" style="shape=umlLifeline;perimeter=lifelinePerimeter;whiteSpace=wrap;html=1;container=1;dropTarget=0;collapsible=0;recursiveResize=0;outlineConnect=0;portConstraint=eastwest;newEdgeStyle={&quot;curved&quot;:0,&quot;rounded&quot;:0};" vertex="1" parent="1">
          <mxGeometry x="3540" y="1385" width="140" height="700" as="geometry" />
        </mxCell>
        <mxCell id="YE1okfd42vqZ9Zn_DNne-83" value="Account" style="shape=umlLifeline;perimeter=lifelinePerimeter;whiteSpace=wrap;html=1;container=1;dropTarget=0;collapsible=0;recursiveResize=0;outlineConnect=0;portConstraint=eastwest;newEdgeStyle={&quot;curved&quot;:0,&quot;rounded&quot;:0};" vertex="1" parent="1">
          <mxGeometry x="2830" y="1385" width="120" height="700" as="geometry" />
        </mxCell>
        <mxCell id="YE1okfd42vqZ9Zn_DNne-84" value="" style="html=1;points=[[0,0,0,0,5],[0,1,0,0,-5],[1,0,0,0,5],[1,1,0,0,-5]];perimeter=orthogonalPerimeter;outlineConnect=0;targetShapes=umlLifeline;portConstraint=eastwest;newEdgeStyle={&quot;curved&quot;:0,&quot;rounded&quot;:0};" vertex="1" parent="YE1okfd42vqZ9Zn_DNne-83">
          <mxGeometry x="55" y="272" width="10" height="170" as="geometry" />
        </mxCell>
        <mxCell id="YE1okfd42vqZ9Zn_DNne-85" value="" style="html=1;points=[[0,0,0,0,5],[0,1,0,0,-5],[1,0,0,0,5],[1,1,0,0,-5]];perimeter=orthogonalPerimeter;outlineConnect=0;targetShapes=umlLifeline;portConstraint=eastwest;newEdgeStyle={&quot;curved&quot;:0,&quot;rounded&quot;:0};" vertex="1" parent="YE1okfd42vqZ9Zn_DNne-83">
          <mxGeometry x="60" y="382" width="10" height="40" as="geometry" />
        </mxCell>
        <mxCell id="YE1okfd42vqZ9Zn_DNne-86" value="7: addEntry" style="html=1;align=left;spacingLeft=2;endArrow=block;rounded=0;edgeStyle=orthogonalEdgeStyle;curved=0;rounded=0;" edge="1" parent="YE1okfd42vqZ9Zn_DNne-83" target="YE1okfd42vqZ9Zn_DNne-85">
          <mxGeometry relative="1" as="geometry">
            <mxPoint x="65" y="362" as="sourcePoint" />
            <Array as="points">
              <mxPoint x="95" y="392" />
            </Array>
          </mxGeometry>
        </mxCell>
        <mxCell id="YE1okfd42vqZ9Zn_DNne-87" value="" style="html=1;points=[[0,0,0,0,5],[0,1,0,0,-5],[1,0,0,0,5],[1,1,0,0,-5]];perimeter=orthogonalPerimeter;outlineConnect=0;targetShapes=umlLifeline;portConstraint=eastwest;newEdgeStyle={&quot;curved&quot;:0,&quot;rounded&quot;:0};" vertex="1" parent="YE1okfd42vqZ9Zn_DNne-83">
          <mxGeometry x="237" y="302" width="10" height="40" as="geometry" />
        </mxCell>
        <mxCell id="YE1okfd42vqZ9Zn_DNne-88" value="" style="endArrow=block;endFill=1;endSize=6;html=1;rounded=0;startSize=8;entryX=0;entryY=0;entryDx=0;entryDy=5;entryPerimeter=0;" edge="1" parent="YE1okfd42vqZ9Zn_DNne-83" source="YE1okfd42vqZ9Zn_DNne-84" target="YE1okfd42vqZ9Zn_DNne-87">
          <mxGeometry width="160" relative="1" as="geometry">
            <mxPoint x="130" y="262" as="sourcePoint" />
            <mxPoint x="335" y="262" as="targetPoint" />
          </mxGeometry>
        </mxCell>
        <mxCell id="YE1okfd42vqZ9Zn_DNne-89" value="7: new" style="text;html=1;align=center;verticalAlign=middle;resizable=0;points=[];autosize=1;strokeColor=none;fillColor=none;" vertex="1" parent="YE1okfd42vqZ9Zn_DNne-83">
          <mxGeometry x="120" y="272" width="60" height="30" as="geometry" />
        </mxCell>
        <mxCell id="YE1okfd42vqZ9Zn_DNne-90" value="&lt;font style=&quot;font-size: 18px;&quot;&gt;&lt;b&gt;6: Charge credit account sequence diagram&lt;/b&gt;&lt;/font&gt;" style="text;html=1;align=center;verticalAlign=middle;resizable=0;points=[];autosize=1;strokeColor=none;fillColor=none;" vertex="1" parent="1">
          <mxGeometry x="2005" y="1325" width="400" height="40" as="geometry" />
        </mxCell>
        <mxCell id="YE1okfd42vqZ9Zn_DNne-91" value="" style="endArrow=block;endFill=1;endSize=6;html=1;rounded=0;startSize=8;entryX=0;entryY=0;entryDx=0;entryDy=5;entryPerimeter=0;" edge="1" parent="1" source="YE1okfd42vqZ9Zn_DNne-70" target="YE1okfd42vqZ9Zn_DNne-68">
          <mxGeometry width="160" relative="1" as="geometry">
            <mxPoint x="2497" y="1940" as="sourcePoint" />
            <mxPoint x="2672.5" y="1875" as="targetPoint" />
          </mxGeometry>
        </mxCell>
        <mxCell id="YE1okfd42vqZ9Zn_DNne-92" value="10: getRepository" style="text;html=1;align=center;verticalAlign=middle;resizable=0;points=[];autosize=1;strokeColor=none;fillColor=none;" vertex="1" parent="1">
          <mxGeometry x="2530" y="1887" width="120" height="30" as="geometry" />
        </mxCell>
        <mxCell id="YE1okfd42vqZ9Zn_DNne-93" value="" style="endArrow=block;endFill=1;endSize=6;html=1;rounded=0;startSize=8;entryX=0;entryY=0;entryDx=0;entryDy=5;entryPerimeter=0;" edge="1" parent="1" target="YE1okfd42vqZ9Zn_DNne-66">
          <mxGeometry width="160" relative="1" as="geometry">
            <mxPoint x="2497" y="1982" as="sourcePoint" />
            <mxPoint x="3213" y="1987" as="targetPoint" />
          </mxGeometry>
        </mxCell>
        <mxCell id="YE1okfd42vqZ9Zn_DNne-94" value="11: update" style="text;html=1;align=center;verticalAlign=middle;resizable=0;points=[];autosize=1;strokeColor=none;fillColor=none;" vertex="1" parent="1">
          <mxGeometry x="2940" y="1947" width="80" height="30" as="geometry" />
        </mxCell>
        <mxCell id="YE1okfd42vqZ9Zn_DNne-95" value="" style="html=1;points=[[0,0,0,0,5],[0,1,0,0,-5],[1,0,0,0,5],[1,1,0,0,-5]];perimeter=orthogonalPerimeter;outlineConnect=0;targetShapes=umlLifeline;portConstraint=eastwest;newEdgeStyle={&quot;curved&quot;:0,&quot;rounded&quot;:0};" vertex="1" parent="1">
          <mxGeometry x="3606" y="2008" width="10" height="39" as="geometry" />
        </mxCell>
        <mxCell id="YE1okfd42vqZ9Zn_DNne-96" value="12: saveToDB" style="text;html=1;align=center;verticalAlign=middle;resizable=0;points=[];autosize=1;strokeColor=none;fillColor=none;" vertex="1" parent="1">
          <mxGeometry x="3460" y="1987" width="100" height="30" as="geometry" />
        </mxCell>
        <mxCell id="YE1okfd42vqZ9Zn_DNne-97" value="" style="endArrow=block;endFill=1;endSize=6;html=1;rounded=0;startSize=8;entryX=0;entryY=0;entryDx=0;entryDy=5;entryPerimeter=0;exitX=1;exitY=1;exitDx=0;exitDy=-5;exitPerimeter=0;" edge="1" parent="1" source="YE1okfd42vqZ9Zn_DNne-66" target="YE1okfd42vqZ9Zn_DNne-95">
          <mxGeometry width="160" relative="1" as="geometry">
            <mxPoint x="3431" y="2017" as="sourcePoint" />
            <mxPoint x="3606" y="2017" as="targetPoint" />
          </mxGeometry>
        </mxCell>
        <mxCell id="YE1okfd42vqZ9Zn_DNne-102" value="9: onUpdate" style="text;html=1;align=center;verticalAlign=middle;resizable=0;points=[];autosize=1;strokeColor=none;fillColor=none;" vertex="1" parent="1">
          <mxGeometry x="2925" y="1827" width="90" height="30" as="geometry" />
        </mxCell>
        <mxCell id="YE1okfd42vqZ9Zn_DNne-104" value="" style="endArrow=block;endFill=1;endSize=6;html=1;rounded=0;startSize=8;entryX=0;entryY=0;entryDx=0;entryDy=5;entryPerimeter=0;" edge="1" parent="1" source="YE1okfd42vqZ9Zn_DNne-70" target="YE1okfd42vqZ9Zn_DNne-105">
          <mxGeometry width="160" relative="1" as="geometry">
            <mxPoint x="2480" y="1575" as="sourcePoint" />
            <mxPoint x="2650" y="1575" as="targetPoint" />
          </mxGeometry>
        </mxCell>
        <mxCell id="YE1okfd42vqZ9Zn_DNne-106" value="4: getRepository" style="text;html=1;align=center;verticalAlign=middle;resizable=0;points=[];autosize=1;strokeColor=none;fillColor=none;" vertex="1" parent="1">
          <mxGeometry x="2527" y="1535" width="110" height="30" as="geometry" />
        </mxCell>
        <mxCell id="YE1okfd42vqZ9Zn_DNne-107" value="" style="endArrow=block;endFill=1;endSize=6;html=1;rounded=0;startSize=8;entryX=0;entryY=0;entryDx=0;entryDy=5;entryPerimeter=0;exitX=1;exitY=1;exitDx=0;exitDy=-5;exitPerimeter=0;" edge="1" parent="1" source="YE1okfd42vqZ9Zn_DNne-105" target="YE1okfd42vqZ9Zn_DNne-108">
          <mxGeometry width="160" relative="1" as="geometry">
            <mxPoint x="2690" y="1595" as="sourcePoint" />
            <mxPoint x="3078" y="1595" as="targetPoint" />
          </mxGeometry>
        </mxCell>
        <mxCell id="YE1okfd42vqZ9Zn_DNne-109" value="5: getAccount" style="text;html=1;align=center;verticalAlign=middle;resizable=0;points=[];autosize=1;strokeColor=none;fillColor=none;" vertex="1" parent="1">
          <mxGeometry x="2950" y="1565" width="100" height="30" as="geometry" />
        </mxCell>
        <mxCell id="YE1okfd42vqZ9Zn_DNne-117" value="" style="html=1;points=[[0,0,0,0,5],[0,1,0,0,-5],[1,0,0,0,5],[1,1,0,0,-5]];perimeter=orthogonalPerimeter;outlineConnect=0;targetShapes=umlLifeline;portConstraint=eastwest;newEdgeStyle={&quot;curved&quot;:0,&quot;rounded&quot;:0};" vertex="1" parent="1">
          <mxGeometry x="2691" y="826" width="10" height="40" as="geometry" />
        </mxCell>
        <mxCell id="YE1okfd42vqZ9Zn_DNne-118" value="" style="endArrow=block;endFill=1;endSize=6;html=1;rounded=0;startSize=8;entryX=0;entryY=0;entryDx=0;entryDy=5;entryPerimeter=0;" edge="1" parent="1" target="YE1okfd42vqZ9Zn_DNne-117">
          <mxGeometry width="160" relative="1" as="geometry">
            <mxPoint x="2508" y="831" as="sourcePoint" />
            <mxPoint x="2661" y="836" as="targetPoint" />
          </mxGeometry>
        </mxCell>
        <mxCell id="YE1okfd42vqZ9Zn_DNne-119" value="4: getRepository" style="text;html=1;align=center;verticalAlign=middle;resizable=0;points=[];autosize=1;strokeColor=none;fillColor=none;" vertex="1" parent="1">
          <mxGeometry x="2538" y="796" width="110" height="30" as="geometry" />
        </mxCell>
        <mxCell id="YE1okfd42vqZ9Zn_DNne-120" value="" style="endArrow=block;endFill=1;endSize=6;html=1;rounded=0;startSize=8;entryX=0;entryY=0;entryDx=0;entryDy=5;entryPerimeter=0;exitX=1;exitY=1;exitDx=0;exitDy=-5;exitPerimeter=0;" edge="1" parent="1" source="YE1okfd42vqZ9Zn_DNne-117" target="YE1okfd42vqZ9Zn_DNne-116">
          <mxGeometry width="160" relative="1" as="geometry">
            <mxPoint x="2701" y="856" as="sourcePoint" />
            <mxPoint x="3089" y="856" as="targetPoint" />
          </mxGeometry>
        </mxCell>
        <mxCell id="YE1okfd42vqZ9Zn_DNne-121" value="5: getAccount" style="text;html=1;align=center;verticalAlign=middle;resizable=0;points=[];autosize=1;strokeColor=none;fillColor=none;" vertex="1" parent="1">
          <mxGeometry x="2961" y="826" width="100" height="30" as="geometry" />
        </mxCell>
        <mxCell id="YE1okfd42vqZ9Zn_DNne-123" value="" style="endArrow=block;endFill=1;endSize=6;html=1;rounded=0;startSize=8;entryX=0;entryY=0;entryDx=0;entryDy=5;entryPerimeter=0;" edge="1" parent="1" source="BAiD5vXmkqKVS3xAQffU-81" target="YE1okfd42vqZ9Zn_DNne-124">
          <mxGeometry width="160" relative="1" as="geometry">
            <mxPoint x="741" y="2350" as="sourcePoint" />
            <mxPoint x="926" y="2350" as="targetPoint" />
          </mxGeometry>
        </mxCell>
        <mxCell id="YE1okfd42vqZ9Zn_DNne-125" value="5: getAllAccounts" style="text;html=1;align=center;verticalAlign=middle;resizable=0;points=[];autosize=1;strokeColor=none;fillColor=none;" vertex="1" parent="1">
          <mxGeometry x="980" y="2320" width="120" height="30" as="geometry" />
        </mxCell>
        <mxCell id="YE1okfd42vqZ9Zn_DNne-127" value="" style="endArrow=block;endFill=1;endSize=6;html=1;rounded=0;startSize=8;entryX=0;entryY=0;entryDx=0;entryDy=5;entryPerimeter=0;" edge="1" parent="1" target="YE1okfd42vqZ9Zn_DNne-126">
          <mxGeometry width="160" relative="1" as="geometry">
            <mxPoint x="740" y="1613" as="sourcePoint" />
            <mxPoint x="945" y="1638" as="targetPoint" />
          </mxGeometry>
        </mxCell>
        <mxCell id="YE1okfd42vqZ9Zn_DNne-128" value="5: getAccount" style="text;html=1;align=center;verticalAlign=middle;resizable=0;points=[];autosize=1;strokeColor=none;fillColor=none;" vertex="1" parent="1">
          <mxGeometry x="980" y="1580" width="100" height="30" as="geometry" />
        </mxCell>
        <mxCell id="YE1okfd42vqZ9Zn_DNne-129" value="" style="endArrow=block;endFill=1;endSize=6;html=1;rounded=0;startSize=8;entryX=0;entryY=0;entryDx=0;entryDy=5;entryPerimeter=0;" edge="1" parent="1" target="YE1okfd42vqZ9Zn_DNne-130">
          <mxGeometry width="160" relative="1" as="geometry">
            <mxPoint x="735" y="846" as="sourcePoint" />
            <mxPoint x="931" y="847" as="targetPoint" />
          </mxGeometry>
        </mxCell>
        <mxCell id="YE1okfd42vqZ9Zn_DNne-131" value="5: getAccount" style="text;html=1;align=center;verticalAlign=middle;resizable=0;points=[];autosize=1;strokeColor=none;fillColor=none;" vertex="1" parent="1">
          <mxGeometry x="985" y="810" width="100" height="30" as="geometry" />
        </mxCell>
        <mxCell id="YE1okfd42vqZ9Zn_DNne-132" value="CreditApplication" style="shape=umlLifeline;perimeter=lifelinePerimeter;whiteSpace=wrap;html=1;container=1;dropTarget=0;collapsible=0;recursiveResize=0;outlineConnect=0;portConstraint=eastwest;newEdgeStyle={&quot;curved&quot;:0,&quot;rounded&quot;:0};" vertex="1" parent="1">
          <mxGeometry x="2075" y="120.5" width="100" height="430" as="geometry" />
        </mxCell>
        <mxCell id="YE1okfd42vqZ9Zn_DNne-133" value="" style="html=1;points=[[0,0,0,0,5],[0,1,0,0,-5],[1,0,0,0,5],[1,1,0,0,-5]];perimeter=orthogonalPerimeter;outlineConnect=0;targetShapes=umlLifeline;portConstraint=eastwest;newEdgeStyle={&quot;curved&quot;:0,&quot;rounded&quot;:0};" vertex="1" parent="YE1okfd42vqZ9Zn_DNne-132">
          <mxGeometry x="45" y="90" width="10" height="40" as="geometry" />
        </mxCell>
        <mxCell id="YE1okfd42vqZ9Zn_DNne-134" value="AccountRepository" style="shape=umlLifeline;perimeter=lifelinePerimeter;whiteSpace=wrap;html=1;container=1;dropTarget=0;collapsible=0;recursiveResize=0;outlineConnect=0;portConstraint=eastwest;newEdgeStyle={&quot;curved&quot;:0,&quot;rounded&quot;:0};" vertex="1" parent="1">
          <mxGeometry x="3065" y="120.5" width="140" height="430" as="geometry" />
        </mxCell>
        <mxCell id="YE1okfd42vqZ9Zn_DNne-135" value="" style="html=1;points=[[0,0,0,0,5],[0,1,0,0,-5],[1,0,0,0,5],[1,1,0,0,-5]];perimeter=orthogonalPerimeter;outlineConnect=0;targetShapes=umlLifeline;portConstraint=eastwest;newEdgeStyle={&quot;curved&quot;:0,&quot;rounded&quot;:0};" vertex="1" parent="YE1okfd42vqZ9Zn_DNne-134">
          <mxGeometry x="65" y="330" width="10" height="40" as="geometry" />
        </mxCell>
        <mxCell id="YE1okfd42vqZ9Zn_DNne-136" value="AccountOperationService" style="shape=umlLifeline;perimeter=lifelinePerimeter;whiteSpace=wrap;html=1;container=1;dropTarget=0;collapsible=0;recursiveResize=0;outlineConnect=0;portConstraint=eastwest;newEdgeStyle={&quot;curved&quot;:0,&quot;rounded&quot;:0};" vertex="1" parent="1">
          <mxGeometry x="2835" y="120.5" width="170" height="430" as="geometry" />
        </mxCell>
        <mxCell id="YE1okfd42vqZ9Zn_DNne-137" value="" style="html=1;points=[[0,0,0,0,5],[0,1,0,0,-5],[1,0,0,0,5],[1,1,0,0,-5]];perimeter=orthogonalPerimeter;outlineConnect=0;targetShapes=umlLifeline;portConstraint=eastwest;newEdgeStyle={&quot;curved&quot;:0,&quot;rounded&quot;:0};" vertex="1" parent="YE1okfd42vqZ9Zn_DNne-136">
          <mxGeometry x="80" y="260" width="10" height="40" as="geometry" />
        </mxCell>
        <mxCell id="YE1okfd42vqZ9Zn_DNne-138" value="CreditCardService" style="shape=umlLifeline;perimeter=lifelinePerimeter;whiteSpace=wrap;html=1;container=1;dropTarget=0;collapsible=0;recursiveResize=0;outlineConnect=0;portConstraint=eastwest;newEdgeStyle={&quot;curved&quot;:0,&quot;rounded&quot;:0};" vertex="1" parent="1">
          <mxGeometry x="2445" y="120.5" width="100" height="430" as="geometry" />
        </mxCell>
        <mxCell id="YE1okfd42vqZ9Zn_DNne-139" value="" style="html=1;points=[[0,0,0,0,5],[0,1,0,0,-5],[1,0,0,0,5],[1,1,0,0,-5]];perimeter=orthogonalPerimeter;outlineConnect=0;targetShapes=umlLifeline;portConstraint=eastwest;newEdgeStyle={&quot;curved&quot;:0,&quot;rounded&quot;:0};" vertex="1" parent="YE1okfd42vqZ9Zn_DNne-138">
          <mxGeometry x="45" y="150" width="10" height="190" as="geometry" />
        </mxCell>
        <mxCell id="YE1okfd42vqZ9Zn_DNne-140" value="CreateCreditAccountUseCase" style="shape=umlLifeline;perimeter=lifelinePerimeter;whiteSpace=wrap;html=1;container=1;dropTarget=0;collapsible=0;recursiveResize=0;outlineConnect=0;portConstraint=eastwest;newEdgeStyle={&quot;curved&quot;:0,&quot;rounded&quot;:0};" vertex="1" parent="1">
          <mxGeometry x="2231" y="120.5" width="170" height="430" as="geometry" />
        </mxCell>
        <mxCell id="YE1okfd42vqZ9Zn_DNne-141" value="" style="html=1;points=[[0,0,0,0,5],[0,1,0,0,-5],[1,0,0,0,5],[1,1,0,0,-5]];perimeter=orthogonalPerimeter;outlineConnect=0;targetShapes=umlLifeline;portConstraint=eastwest;newEdgeStyle={&quot;curved&quot;:0,&quot;rounded&quot;:0};" vertex="1" parent="YE1okfd42vqZ9Zn_DNne-140">
          <mxGeometry x="79" y="120" width="10" height="40" as="geometry" />
        </mxCell>
        <mxCell id="YE1okfd42vqZ9Zn_DNne-142" value="" style="shape=umlLifeline;perimeter=lifelinePerimeter;whiteSpace=wrap;html=1;container=1;dropTarget=0;collapsible=0;recursiveResize=0;outlineConnect=0;portConstraint=eastwest;newEdgeStyle={&quot;curved&quot;:0,&quot;rounded&quot;:0};participant=umlActor;" vertex="1" parent="1">
          <mxGeometry x="2005" y="120.5" width="20" height="430" as="geometry" />
        </mxCell>
        <mxCell id="YE1okfd42vqZ9Zn_DNne-143" value="" style="html=1;verticalAlign=bottom;startArrow=oval;startFill=1;endArrow=block;startSize=8;curved=0;rounded=0;entryX=0;entryY=0;entryDx=0;entryDy=5;entryPerimeter=0;" edge="1" parent="1" source="YE1okfd42vqZ9Zn_DNne-142" target="YE1okfd42vqZ9Zn_DNne-133">
          <mxGeometry width="60" relative="1" as="geometry">
            <mxPoint x="2035" y="208.5" as="sourcePoint" />
            <mxPoint x="2125" y="208.5" as="targetPoint" />
            <mxPoint as="offset" />
          </mxGeometry>
        </mxCell>
        <mxCell id="YE1okfd42vqZ9Zn_DNne-144" value="1: addAccount" style="text;html=1;align=center;verticalAlign=middle;resizable=0;points=[];autosize=1;strokeColor=none;fillColor=none;" vertex="1" parent="1">
          <mxGeometry x="2015" y="174.5" width="100" height="30" as="geometry" />
        </mxCell>
        <mxCell id="YE1okfd42vqZ9Zn_DNne-145" value="" style="endArrow=block;endFill=1;endSize=6;html=1;rounded=0;exitX=1;exitY=1;exitDx=0;exitDy=-5;exitPerimeter=0;startSize=8;entryX=0;entryY=0;entryDx=0;entryDy=5;entryPerimeter=0;" edge="1" parent="1" source="YE1okfd42vqZ9Zn_DNne-133" target="YE1okfd42vqZ9Zn_DNne-141">
          <mxGeometry width="160" relative="1" as="geometry">
            <mxPoint x="2145" y="240.5" as="sourcePoint" />
            <mxPoint x="2305" y="245.5" as="targetPoint" />
          </mxGeometry>
        </mxCell>
        <mxCell id="YE1okfd42vqZ9Zn_DNne-146" value="2: execute" style="text;html=1;align=center;verticalAlign=middle;resizable=0;points=[];autosize=1;strokeColor=none;fillColor=none;" vertex="1" parent="1">
          <mxGeometry x="2175" y="210.5" width="80" height="30" as="geometry" />
        </mxCell>
        <mxCell id="YE1okfd42vqZ9Zn_DNne-147" value="" style="endArrow=block;endFill=1;endSize=6;html=1;rounded=0;exitX=1;exitY=1;exitDx=0;exitDy=-5;exitPerimeter=0;startSize=8;entryX=0;entryY=0;entryDx=0;entryDy=5;entryPerimeter=0;" edge="1" parent="1" source="YE1okfd42vqZ9Zn_DNne-141" target="YE1okfd42vqZ9Zn_DNne-139">
          <mxGeometry width="160" relative="1" as="geometry">
            <mxPoint x="2325" y="280.5" as="sourcePoint" />
            <mxPoint x="2495" y="280.5" as="targetPoint" />
          </mxGeometry>
        </mxCell>
        <mxCell id="YE1okfd42vqZ9Zn_DNne-148" value="3: createCreditAccount" style="text;html=1;align=center;verticalAlign=middle;resizable=0;points=[];autosize=1;strokeColor=none;fillColor=none;" vertex="1" parent="1">
          <mxGeometry x="2330" y="240.5" width="150" height="30" as="geometry" />
        </mxCell>
        <mxCell id="YE1okfd42vqZ9Zn_DNne-149" value="" style="endArrow=block;endFill=1;endSize=6;html=1;rounded=0;startSize=8;entryX=0;entryY=0;entryDx=0;entryDy=5;entryPerimeter=0;" edge="1" parent="1" source="YE1okfd42vqZ9Zn_DNne-139" target="YE1okfd42vqZ9Zn_DNne-152">
          <mxGeometry width="160" relative="1" as="geometry">
            <mxPoint x="2525" y="305.5" as="sourcePoint" />
            <mxPoint x="2645" y="305.5" as="targetPoint" />
          </mxGeometry>
        </mxCell>
        <mxCell id="YE1okfd42vqZ9Zn_DNne-150" value="4: createCreditAccount" style="text;html=1;align=center;verticalAlign=middle;resizable=0;points=[];autosize=1;strokeColor=none;fillColor=none;" vertex="1" parent="1">
          <mxGeometry x="2525" y="270.5" width="150" height="30" as="geometry" />
        </mxCell>
        <mxCell id="YE1okfd42vqZ9Zn_DNne-151" value="CreditCardFactory" style="shape=umlLifeline;perimeter=lifelinePerimeter;whiteSpace=wrap;html=1;container=1;dropTarget=0;collapsible=0;recursiveResize=0;outlineConnect=0;portConstraint=eastwest;newEdgeStyle={&quot;curved&quot;:0,&quot;rounded&quot;:0};" vertex="1" parent="1">
          <mxGeometry x="2615" y="120.5" width="170" height="430" as="geometry" />
        </mxCell>
        <mxCell id="YE1okfd42vqZ9Zn_DNne-152" value="" style="html=1;points=[[0,0,0,0,5],[0,1,0,0,-5],[1,0,0,0,5],[1,1,0,0,-5]];perimeter=orthogonalPerimeter;outlineConnect=0;targetShapes=umlLifeline;portConstraint=eastwest;newEdgeStyle={&quot;curved&quot;:0,&quot;rounded&quot;:0};" vertex="1" parent="YE1okfd42vqZ9Zn_DNne-151">
          <mxGeometry x="80" y="180" width="10" height="40" as="geometry" />
        </mxCell>
        <mxCell id="YE1okfd42vqZ9Zn_DNne-153" value="" style="endArrow=block;endFill=1;endSize=6;html=1;rounded=0;startSize=8;entryX=0;entryY=0;entryDx=0;entryDy=5;entryPerimeter=0;" edge="1" parent="1" source="YE1okfd42vqZ9Zn_DNne-139" target="YE1okfd42vqZ9Zn_DNne-137">
          <mxGeometry width="160" relative="1" as="geometry">
            <mxPoint x="2515" y="370.5" as="sourcePoint" />
            <mxPoint x="2710" y="370.5" as="targetPoint" />
          </mxGeometry>
        </mxCell>
        <mxCell id="YE1okfd42vqZ9Zn_DNne-154" value="5: getRepository" style="text;html=1;align=center;verticalAlign=middle;resizable=0;points=[];autosize=1;strokeColor=none;fillColor=none;" vertex="1" parent="1">
          <mxGeometry x="2715" y="350.5" width="110" height="30" as="geometry" />
        </mxCell>
        <mxCell id="YE1okfd42vqZ9Zn_DNne-155" value="" style="endArrow=block;endFill=1;endSize=6;html=1;rounded=0;startSize=8;entryX=0;entryY=0;entryDx=0;entryDy=5;entryPerimeter=0;" edge="1" parent="1" source="YE1okfd42vqZ9Zn_DNne-139" target="YE1okfd42vqZ9Zn_DNne-135">
          <mxGeometry width="160" relative="1" as="geometry">
            <mxPoint x="2505" y="460.5" as="sourcePoint" />
            <mxPoint x="2920" y="460.5" as="targetPoint" />
          </mxGeometry>
        </mxCell>
        <mxCell id="YE1okfd42vqZ9Zn_DNne-156" value="6: save" style="text;html=1;align=center;verticalAlign=middle;resizable=0;points=[];autosize=1;strokeColor=none;fillColor=none;" vertex="1" parent="1">
          <mxGeometry x="2800" y="420.5" width="60" height="30" as="geometry" />
        </mxCell>
        <mxCell id="YE1okfd42vqZ9Zn_DNne-157" value="DB" style="shape=umlLifeline;perimeter=lifelinePerimeter;whiteSpace=wrap;html=1;container=1;dropTarget=0;collapsible=0;recursiveResize=0;outlineConnect=0;portConstraint=eastwest;newEdgeStyle={&quot;curved&quot;:0,&quot;rounded&quot;:0};" vertex="1" parent="1">
          <mxGeometry x="3260" y="120.5" width="140" height="430" as="geometry" />
        </mxCell>
        <mxCell id="YE1okfd42vqZ9Zn_DNne-158" value="" style="html=1;points=[[0,0,0,0,5],[0,1,0,0,-5],[1,0,0,0,5],[1,1,0,0,-5]];perimeter=orthogonalPerimeter;outlineConnect=0;targetShapes=umlLifeline;portConstraint=eastwest;newEdgeStyle={&quot;curved&quot;:0,&quot;rounded&quot;:0};" vertex="1" parent="YE1okfd42vqZ9Zn_DNne-157">
          <mxGeometry x="65" y="360" width="10" height="40" as="geometry" />
        </mxCell>
        <mxCell id="YE1okfd42vqZ9Zn_DNne-159" value="" style="endArrow=block;endFill=1;endSize=6;html=1;rounded=0;exitX=1;exitY=1;exitDx=0;exitDy=-5;exitPerimeter=0;startSize=8;entryX=0;entryY=0;entryDx=0;entryDy=5;entryPerimeter=0;" edge="1" parent="1" source="YE1okfd42vqZ9Zn_DNne-135" target="YE1okfd42vqZ9Zn_DNne-158">
          <mxGeometry width="160" relative="1" as="geometry">
            <mxPoint x="3145" y="480.5" as="sourcePoint" />
            <mxPoint x="3325" y="485.5" as="targetPoint" />
          </mxGeometry>
        </mxCell>
        <mxCell id="YE1okfd42vqZ9Zn_DNne-160" value="7: saveToDB" style="text;html=1;align=center;verticalAlign=middle;resizable=0;points=[];autosize=1;strokeColor=none;fillColor=none;" vertex="1" parent="1">
          <mxGeometry x="3180" y="450.5" width="90" height="30" as="geometry" />
        </mxCell>
        <mxCell id="YE1okfd42vqZ9Zn_DNne-161" value="&lt;font style=&quot;font-size: 18px;&quot;&gt;&lt;b&gt;1: Create credit account sequence diagram&lt;/b&gt;&lt;/font&gt;" style="text;html=1;align=center;verticalAlign=middle;resizable=0;points=[];autosize=1;strokeColor=none;fillColor=none;" vertex="1" parent="1">
          <mxGeometry x="2000" y="43.5" width="390" height="40" as="geometry" />
        </mxCell>
      </root>
    </mxGraphModel>
  </diagram>
</mxfile>
